<svg xmlns="http://www.w3.org/2000/svg" width="100%" height="100%"><path d="M2085,-148L1960,-148L2085,-23Z" fill="#9b537b" stroke="#9b537b" stroke-width="1.51"/><path d="M1960,-148L1960,-23L2085,-23Z" fill="#a35e80" stroke="#a35e80" stroke-width="1.51"/><path d="M2085,-23L1960,-23L2085,102Z" fill="#ac637c" stroke="#ac637c" stroke-width="1.51"/><path d="M1960,-23L1960,102L2085,102Z" fill="#b16e7e" stroke="#b16e7e" stroke-width="1.51"/><path d="M2085,102L1960,102L2085,227Z" fill="#b57780" stroke="#b57780" stroke-width="1.51"/><path d="M1960,102L1960,227L2085,227Z" fill="#b48587" stroke="#b48587" stroke-width="1.51"/><path d="M2085,227L1960,227L2085,352Z" fill="#b48e8f" stroke="#b48e8f" stroke-width="1.51"/><path d="M1960,227L1960,352L2085,352Z" fill="#b29b97" stroke="#b29b97" stroke-width="1.51"/><path d="M2085,352L1960,352L2085,477Z" fill="#b1a2a1" stroke="#b1a2a1" stroke-width="1.51"/><path d="M1960,352L1960,477L2085,477Z" fill="#afabaa" stroke="#afabaa" stroke-width="1.51"/><path d="M2085,477L1960,477L2085,602Z" fill="#afafb5" stroke="#afafb5" stroke-width="1.51"/><path d="M1960,477L1960,602L2085,602Z" fill="#acb5b9" stroke="#acb5b9" stroke-width="1.51"/><path d="M2085,602L1960,602L2085,727Z" fill="#a8adac" stroke="#a8adac" stroke-width="1.51"/><path d="M1960,602L1960,727L2085,727Z" fill="#a3b1a9" stroke="#a3b1a9" stroke-width="1.51"/><path d="M1960,977L2085,977L2085,852Z" fill="#6f99ab" stroke="#6f99ab" stroke-width="1.51"/><path d="M1960,852L1960,977L2085,852Z" fill="#76a2ad" stroke="#76a2ad" stroke-width="1.51"/><path d="M2085,727L1960,727L2085,852Z" fill="#94a6a9" stroke="#94a6a9" stroke-width="1.51"/><path d="M1960,727L1960,852L2085,852Z" fill="#89a9ad" stroke="#89a9ad" stroke-width="1.51"/><path d="M2085,977L1960,977L2085,1102Z" fill="#5d90ad" stroke="#5d90ad" stroke-width="1.51"/><path d="M1960,977L1960,1102L2085,1102Z" fill="#528cb2" stroke="#528cb2" stroke-width="1.51"/><path d="M2085,1102L1960,1102L2085,1227Z" fill="#4678b5" stroke="#4678b5" stroke-width="1.51"/><path d="M1960,1102L1960,1227L2085,1227Z" fill="#4975b4" stroke="#4975b4" stroke-width="1.51"/><path d="M1960,-148L1835,-148L1960,-23Z" fill="#9a6482" stroke="#9a6482" stroke-width="1.51"/><path d="M1835,-148L1835,-23L1960,-23Z" fill="#a46f83" stroke="#a46f83" stroke-width="1.51"/><path d="M1960,-23L1835,-23L1960,102Z" fill="#ab7482" stroke="#ab7482" stroke-width="1.51"/><path d="M1835,-23L1835,102L1960,102Z" fill="#b27f80" stroke="#b27f80" stroke-width="1.51"/><path d="M1835,977L1960,977L1960,852Z" fill="#64a8b1" stroke="#64a8b1" stroke-width="1.51"/><path d="M1835,852L1835,977L1960,852Z" fill="#71b1b0" stroke="#71b1b0" stroke-width="1.51"/><path d="M1960,352L1835,352L1960,477Z" fill="#adb2a7" stroke="#adb2a7" stroke-width="1.51"/><path d="M1835,352L1835,477L1960,477Z" fill="#aebbad" stroke="#aebbad" stroke-width="1.51"/><path d="M1960,477L1835,477L1960,602Z" fill="#a9bebc" stroke="#a9bebc" stroke-width="1.51"/><path d="M1835,477L1835,602L1960,602Z" fill="#a9c5bc" stroke="#a9c5bc" stroke-width="1.51"/><path d="M1835,852L1960,852L1960,727Z" fill="#83b2b1" stroke="#83b2b1" stroke-width="1.51"/><path d="M1835,727L1835,852L1960,727Z" fill="#8fbbae" stroke="#8fbbae" stroke-width="1.51"/><path d="M1960,602L1835,602L1960,727Z" fill="#a1bdb3" stroke="#a1bdb3" stroke-width="1.51"/><path d="M1835,602L1835,727L1960,727Z" fill="#a0c1ac" stroke="#a0c1ac" stroke-width="1.51"/><path d="M1960,977L1835,977L1960,1102Z" fill="#4f9eb3" stroke="#4f9eb3" stroke-width="1.51"/><path d="M1835,977L1835,1102L1960,1102Z" fill="#4a9bb6" stroke="#4a9bb6" stroke-width="1.51"/><path d="M1835,1227L1960,1227L1960,1102Z" fill="#3f7fb8" stroke="#3f7fb8" stroke-width="1.51"/><path d="M1835,1102L1835,1227L1960,1102Z" fill="#398bbb" stroke="#398bbb" stroke-width="1.51"/><path d="M1960,102L1835,102L1960,227Z" fill="#b38786" stroke="#b38786" stroke-width="1.51"/><path d="M1835,102L1835,227L1960,227Z" fill="#b5958a" stroke="#b5958a" stroke-width="1.51"/><path d="M1835,352L1960,352L1960,227Z" fill="#b0a59b" stroke="#b0a59b" stroke-width="1.51"/><path d="M1835,227L1835,352L1960,227Z" fill="#b3a494" stroke="#b3a494" stroke-width="1.51"/><path d="M1835,-148L1710,-148L1835,-23Z" fill="#a2757c" stroke="#a2757c" stroke-width="1.51"/><path d="M1710,-148L1710,-23L1835,-23Z" fill="#ac807d" stroke="#ac807d" stroke-width="1.51"/><path d="M1835,-23L1710,-23L1835,102Z" fill="#b3857d" stroke="#b3857d" stroke-width="1.51"/><path d="M1710,-23L1710,102L1835,102Z" fill="#ba8f79" stroke="#ba8f79" stroke-width="1.51"/><path d="M1710,352L1835,352L1835,227Z" fill="#b7b595" stroke="#b7b595" stroke-width="1.51"/><path d="M1710,227L1710,352L1835,227Z" fill="#bbb48d" stroke="#bbb48d" stroke-width="1.51"/><path d="M1835,102L1710,102L1835,227Z" fill="#ba9880" stroke="#ba9880" stroke-width="1.51"/><path d="M1710,102L1710,227L1835,227Z" fill="#bca583" stroke="#bca583" stroke-width="1.51"/><path d="M1835,352L1710,352L1835,477Z" fill="#b4c2a1" stroke="#b4c2a1" stroke-width="1.51"/><path d="M1710,352L1710,477L1835,477Z" fill="#b5cba6" stroke="#b5cba6" stroke-width="1.51"/><path d="M1835,477L1710,477L1835,602Z" fill="#b1cfb6" stroke="#b1cfb6" stroke-width="1.51"/><path d="M1710,477L1710,602L1835,602Z" fill="#b1d5b5" stroke="#b1d5b5" stroke-width="1.51"/><path d="M1835,602L1710,602L1835,727Z" fill="#a9cdad" stroke="#a9cdad" stroke-width="1.51"/><path d="M1710,602L1710,727L1835,727Z" fill="#a8d1a5" stroke="#a8d1a5" stroke-width="1.51"/><path d="M1835,727L1710,727L1835,852Z" fill="#94c5aa" stroke="#94c5aa" stroke-width="1.51"/><path d="M1710,727L1710,852L1835,852Z" fill="#8dc8a9" stroke="#8dc8a9" stroke-width="1.51"/><path d="M1835,852L1710,852L1835,977Z" fill="#77bbab" stroke="#77bbab" stroke-width="1.51"/><path d="M1710,852L1710,977L1835,977Z" fill="#6fbdaa" stroke="#6fbdaa" stroke-width="1.51"/><path d="M1710,1227L1835,1227L1835,1102Z" fill="#4f8db4" stroke="#4f8db4" stroke-width="1.51"/><path d="M1710,1102L1710,1227L1835,1102Z" fill="#4b9ab5" stroke="#4b9ab5" stroke-width="1.51"/><path d="M1835,977L1710,977L1835,1102Z" fill="#5aadae" stroke="#5aadae" stroke-width="1.51"/><path d="M1710,977L1710,1102L1835,1102Z" fill="#57aab0" stroke="#57aab0" stroke-width="1.51"/><path d="M1710,-148L1585,-148L1710,-23Z" fill="#aa8476" stroke="#aa8476" stroke-width="1.51"/><path d="M1585,-148L1585,-23L1710,-23Z" fill="#b68c78" stroke="#b68c78" stroke-width="1.51"/><path d="M1710,-23L1585,-23L1710,102Z" fill="#ba9576" stroke="#ba9576" stroke-width="1.51"/><path d="M1585,-23L1585,102L1710,102Z" fill="#c39c74" stroke="#c39c74" stroke-width="1.51"/><path d="M1710,102L1585,102L1710,227Z" fill="#c1a879" stroke="#c1a879" stroke-width="1.51"/><path d="M1585,102L1585,227L1710,227Z" fill="#c6b27e" stroke="#c6b27e" stroke-width="1.51"/><path d="M1585,477L1710,477L1710,352Z" fill="#bad6a1" stroke="#bad6a1" stroke-width="1.51"/><path d="M1585,352L1585,477L1710,352Z" fill="#c0d599" stroke="#c0d599" stroke-width="1.51"/><path d="M1710,227L1585,227L1710,352Z" fill="#bfbf88" stroke="#bfbf88" stroke-width="1.51"/><path d="M1585,227L1585,352L1710,352Z" fill="#c3c88d" stroke="#c3c88d" stroke-width="1.51"/><path d="M1710,477L1585,477L1710,602Z" fill="#b8dfaf" stroke="#b8dfaf" stroke-width="1.51"/><path d="M1585,477L1585,602L1710,602Z" fill="#bce3b0" stroke="#bce3b0" stroke-width="1.51"/><path d="M1710,602L1585,602L1710,727Z" fill="#b0dda5" stroke="#b0dda5" stroke-width="1.51"/><path d="M1585,602L1585,727L1710,727Z" fill="#b2dea0" stroke="#b2dea0" stroke-width="1.51"/><path d="M1710,727L1585,727L1710,852Z" fill="#9bd5a2" stroke="#9bd5a2" stroke-width="1.51"/><path d="M1585,727L1585,852L1710,852Z" fill="#98d4a4" stroke="#98d4a4" stroke-width="1.51"/><path d="M1585,1102L1710,1102L1710,977Z" fill="#5eb4ab" stroke="#5eb4ab" stroke-width="1.51"/><path d="M1585,977L1585,1102L1710,977Z" fill="#6bbfa8" stroke="#6bbfa8" stroke-width="1.51"/><path d="M1710,852L1585,852L1710,977Z" fill="#7fcaa5" stroke="#7fcaa5" stroke-width="1.51"/><path d="M1585,852L1585,977L1710,977Z" fill="#7bc9a5" stroke="#7bc9a5" stroke-width="1.51"/><path d="M1710,1102L1585,1102L1710,1227Z" fill="#54a4b1" stroke="#54a4b1" stroke-width="1.51"/><path d="M1585,1102L1585,1227L1710,1227Z" fill="#639eae" stroke="#639eae" stroke-width="1.51"/><path d="M1585,-148L1460,-148L1585,-23Z" fill="#b88b76" stroke="#b88b76" stroke-width="1.51"/><path d="M1460,-148L1460,-23L1585,-23Z" fill="#c49278" stroke="#c49278" stroke-width="1.51"/><path d="M1585,-23L1460,-23L1585,102Z" fill="#c89b75" stroke="#c89b75" stroke-width="1.51"/><path d="M1460,-23L1460,102L1585,102Z" fill="#d1a274" stroke="#d1a274" stroke-width="1.51"/><path d="M1585,102L1460,102L1585,227Z" fill="#cfaf79" stroke="#cfaf79" stroke-width="1.51"/><path d="M1460,102L1460,227L1585,227Z" fill="#d4b87d" stroke="#d4b87d" stroke-width="1.51"/><path d="M1585,227L1460,227L1585,352Z" fill="#cec687" stroke="#cec687" stroke-width="1.51"/><path d="M1460,227L1460,352L1585,352Z" fill="#d1ce8c" stroke="#d1ce8c" stroke-width="1.51"/><path d="M1585,352L1460,352L1585,477Z" fill="#cad999" stroke="#cad999" stroke-width="1.51"/><path d="M1460,352L1460,477L1585,477Z" fill="#cfdfa0" stroke="#cfdfa0" stroke-width="1.51"/><path d="M1585,477L1460,477L1585,602Z" fill="#c8e6af" stroke="#c8e6af" stroke-width="1.51"/><path d="M1460,477L1460,602L1585,602Z" fill="#cceaaf" stroke="#cceaaf" stroke-width="1.51"/><path d="M1585,602L1460,602L1585,727Z" fill="#c0e4a5" stroke="#c0e4a5" stroke-width="1.51"/><path d="M1460,602L1460,727L1585,727Z" fill="#c1e59f" stroke="#c1e59f" stroke-width="1.51"/><path d="M1585,727L1460,727L1585,852Z" fill="#acdca2" stroke="#acdca2" stroke-width="1.51"/><path d="M1460,727L1460,852L1585,852Z" fill="#a8dba3" stroke="#a8dba3" stroke-width="1.51"/><path d="M1585,852L1460,852L1585,977Z" fill="#91d2a5" stroke="#91d2a5" stroke-width="1.51"/><path d="M1460,852L1460,977L1585,977Z" fill="#8dd0a5" stroke="#8dd0a5" stroke-width="1.51"/><path d="M1585,977L1460,977L1585,1102Z" fill="#78c4a8" stroke="#78c4a8" stroke-width="1.51"/><path d="M1460,977L1460,1102L1585,1102Z" fill="#7abdab" stroke="#7abdab" stroke-width="1.51"/><path d="M1585,1102L1460,1102L1585,1227Z" fill="#6babb2" stroke="#6babb2" stroke-width="1.51"/><path d="M1460,1102L1460,1227L1585,1227Z" fill="#77a5ae" stroke="#77a5ae" stroke-width="1.51"/><path d="M1460,-148L1335,-148L1460,-23Z" fill="#c59175" stroke="#c59175" stroke-width="1.51"/><path d="M1335,-148L1335,-23L1460,-23Z" fill="#d19876" stroke="#d19876" stroke-width="1.51"/><path d="M1460,-23L1335,-23L1460,102Z" fill="#d5a174" stroke="#d5a174" stroke-width="1.51"/><path d="M1335,-23L1335,102L1460,102Z" fill="#dea872" stroke="#dea872" stroke-width="1.51"/><path d="M1460,102L1335,102L1460,227Z" fill="#ddb577" stroke="#ddb577" stroke-width="1.51"/><path d="M1335,102L1335,227L1460,227Z" fill="#e1bf7b" stroke="#e1bf7b" stroke-width="1.51"/><path d="M1460,227L1335,227L1460,352Z" fill="#dccd86" stroke="#dccd86" stroke-width="1.51"/><path d="M1335,227L1335,352L1460,352Z" fill="#dfd58b" stroke="#dfd58b" stroke-width="1.51"/><path d="M1460,352L1335,352L1460,477Z" fill="#d9e098" stroke="#d9e098" stroke-width="1.51"/><path d="M1335,352L1335,477L1460,477Z" fill="#dee69e" stroke="#dee69e" stroke-width="1.51"/><path d="M1460,477L1335,477L1460,602Z" fill="#d8edad" stroke="#d8edad" stroke-width="1.51"/><path d="M1335,477L1335,602L1460,602Z" fill="#dbf1ad" stroke="#dbf1ad" stroke-width="1.51"/><path d="M1460,602L1335,602L1460,727Z" fill="#cfeca4" stroke="#cfeca4" stroke-width="1.51"/><path d="M1335,602L1335,727L1460,727Z" fill="#d1ec9d" stroke="#d1ec9d" stroke-width="1.51"/><path d="M1335,977L1460,977L1460,852Z" fill="#99d5a4" stroke="#99d5a4" stroke-width="1.51"/><path d="M1335,852L1335,977L1460,852Z" fill="#a7dba3" stroke="#a7dba3" stroke-width="1.51"/><path d="M1460,727L1335,727L1460,852Z" fill="#bce4a1" stroke="#bce4a1" stroke-width="1.51"/><path d="M1335,727L1335,852L1460,852Z" fill="#b9e2a2" stroke="#b9e2a2" stroke-width="1.51"/><path d="M1460,977L1335,977L1460,1102Z" fill="#8bcba7" stroke="#8bcba7" stroke-width="1.51"/><path d="M1335,977L1335,1102L1460,1102Z" fill="#8dc4aa" stroke="#8dc4aa" stroke-width="1.51"/><path d="M1460,1102L1335,1102L1460,1227Z" fill="#7eb2b1" stroke="#7eb2b1" stroke-width="1.51"/><path d="M1335,1102L1335,1227L1460,1227Z" fill="#89abad" stroke="#89abad" stroke-width="1.51"/><path d="M1335,-148L1210,-148L1335,-23Z" fill="#d29672" stroke="#d29672" stroke-width="1.51"/><path d="M1210,-148L1210,-23L1335,-23Z" fill="#de9e74" stroke="#de9e74" stroke-width="1.51"/><path d="M1335,-23L1210,-23L1335,102Z" fill="#e2a771" stroke="#e2a771" stroke-width="1.51"/><path d="M1210,-23L1210,102L1335,102Z" fill="#ebae6f" stroke="#ebae6f" stroke-width="1.51"/><path d="M1335,102L1210,102L1335,227Z" fill="#eaba74" stroke="#eaba74" stroke-width="1.51"/><path d="M1210,102L1210,227L1335,227Z" fill="#efc578" stroke="#efc578" stroke-width="1.51"/><path d="M1210,1102L1335,1102L1335,977Z" fill="#98c8a8" stroke="#98c8a8" stroke-width="1.51"/><path d="M1210,977L1210,1102L1335,977Z" fill="#a2d3a3" stroke="#a2d3a3" stroke-width="1.51"/><path d="M1335,477L1210,477L1335,602Z" fill="#e7f3aa" stroke="#e7f3aa" stroke-width="1.51"/><path d="M1210,477L1210,602L1335,602Z" fill="#ebf7aa" stroke="#ebf7aa" stroke-width="1.51"/><path d="M1335,602L1210,602L1335,727Z" fill="#dff2a0" stroke="#dff2a0" stroke-width="1.51"/><path d="M1210,602L1210,727L1335,727Z" fill="#e0f39a" stroke="#e0f39a" stroke-width="1.51"/><path d="M1210,977L1335,977L1335,852Z" fill="#aadba1" stroke="#aadba1" stroke-width="1.51"/><path d="M1210,852L1210,977L1335,852Z" fill="#b8e1a0" stroke="#b8e1a0" stroke-width="1.51"/><path d="M1335,727L1210,727L1335,852Z" fill="#cce99e" stroke="#cce99e" stroke-width="1.51"/><path d="M1210,727L1210,852L1335,852Z" fill="#c8e99f" stroke="#c8e99f" stroke-width="1.51"/><path d="M1335,1102L1210,1102L1335,1227Z" fill="#91b7af" stroke="#91b7af" stroke-width="1.51"/><path d="M1210,1102L1210,1227L1335,1227Z" fill="#9ab1ab" stroke="#9ab1ab" stroke-width="1.51"/><path d="M1335,227L1210,227L1335,352Z" fill="#ead283" stroke="#ead283" stroke-width="1.51"/><path d="M1210,227L1210,352L1335,352Z" fill="#eedb87" stroke="#eedb87" stroke-width="1.51"/><path d="M1210,477L1335,477L1335,352Z" fill="#e8ea9c" stroke="#e8ea9c" stroke-width="1.51"/><path d="M1210,352L1210,477L1335,352Z" fill="#ece993" stroke="#ece993" stroke-width="1.51"/><path d="M1210,-148L1085,-148L1210,-23Z" fill="#de9a73" stroke="#de9a73" stroke-width="1.51"/><path d="M1085,-148L1085,-23L1210,-23Z" fill="#e8a178" stroke="#e8a178" stroke-width="1.51"/><path d="M1210,-23L1085,-23L1210,102Z" fill="#eeab71" stroke="#eeab71" stroke-width="1.51"/><path d="M1085,-23L1085,102L1210,102Z" fill="#f5b173" stroke="#f5b173" stroke-width="1.51"/><path d="M1210,102L1085,102L1210,227Z" fill="#f6bf74" stroke="#f6bf74" stroke-width="1.51"/><path d="M1085,102L1085,227L1210,227Z" fill="#f9c87c" stroke="#f9c87c" stroke-width="1.51"/><path d="M1210,227L1085,227L1210,352Z" fill="#f6d783" stroke="#f6d783" stroke-width="1.51"/><path d="M1085,227L1085,352L1210,352Z" fill="#f8df8c" stroke="#f8df8c" stroke-width="1.51"/><path d="M1210,352L1085,352L1210,477Z" fill="#f4ec94" stroke="#f4ec94" stroke-width="1.51"/><path d="M1085,352L1085,477L1210,477Z" fill="#f7f19f" stroke="#f7f19f" stroke-width="1.51"/><path d="M1210,477L1085,477L1210,602Z" fill="#f4f9ab" stroke="#f4f9ab" stroke-width="1.51"/><path d="M1085,477L1085,602L1210,602Z" fill="#f5fbaf" stroke="#f5fbaf" stroke-width="1.51"/><path d="M1210,602L1085,602L1210,727Z" fill="#ecf7a1" stroke="#ecf7a1" stroke-width="1.51"/><path d="M1085,602L1085,727L1210,727Z" fill="#ebf79f" stroke="#ebf79f" stroke-width="1.51"/><path d="M1210,727L1085,727L1210,852Z" fill="#d9ef9e" stroke="#d9ef9e" stroke-width="1.51"/><path d="M1085,727L1085,852L1210,852Z" fill="#d3eda3" stroke="#d3eda3" stroke-width="1.51"/><path d="M1210,852L1085,852L1210,977Z" fill="#c0e4a1" stroke="#c0e4a1" stroke-width="1.51"/><path d="M1085,852L1085,977L1210,977Z" fill="#bae2a5" stroke="#bae2a5" stroke-width="1.51"/><path d="M1210,977L1085,977L1210,1102Z" fill="#abd6a5" stroke="#abd6a5" stroke-width="1.51"/><path d="M1085,977L1085,1102L1210,1102Z" fill="#a9ceac" stroke="#a9ceac" stroke-width="1.51"/><path d="M1210,1102L1085,1102L1210,1227Z" fill="#9fbcaf" stroke="#9fbcaf" stroke-width="1.51"/><path d="M1085,1102L1085,1227L1210,1227Z" fill="#a5b5af" stroke="#a5b5af" stroke-width="1.51"/><path d="M1085,-148L960,-148L1085,-23Z" fill="#e49d7c" stroke="#e49d7c" stroke-width="1.51"/><path d="M960,-148L960,-23L1085,-23Z" fill="#eea381" stroke="#eea381" stroke-width="1.51"/><path d="M1085,-23L960,-23L1085,102Z" fill="#f4ae7b" stroke="#f4ae7b" stroke-width="1.51"/><path d="M960,-23L960,102L1085,102Z" fill="#fbb37d" stroke="#fbb37d" stroke-width="1.51"/><path d="M1085,102L960,102L1085,227Z" fill="#fcc27e" stroke="#fcc27e" stroke-width="1.51"/><path d="M960,102L960,227L1085,227Z" fill="#ffcb86" stroke="#ffcb86" stroke-width="1.51"/><path d="M1085,227L960,227L1085,352Z" fill="#fcda8d" stroke="#fcda8d" stroke-width="1.51"/><path d="M960,227L960,352L1085,352Z" fill="#fee196" stroke="#fee196" stroke-width="1.51"/><path d="M1085,602L960,602L1085,727Z" fill="#f2faab" stroke="#f2faab" stroke-width="1.51"/><path d="M960,602L960,727L1085,727Z" fill="#f1f9a9" stroke="#f1f9a9" stroke-width="1.51"/><path d="M1085,727L960,727L1085,852Z" fill="#dff2a8" stroke="#dff2a8" stroke-width="1.51"/><path d="M960,727L960,852L1085,852Z" fill="#d9f0ad" stroke="#d9f0ad" stroke-width="1.51"/><path d="M960,1102L1085,1102L1085,977Z" fill="#acd0b2" stroke="#acd0b2" stroke-width="1.51"/><path d="M960,977L960,1102L1085,977Z" fill="#b3dab1" stroke="#b3dab1" stroke-width="1.51"/><path d="M1085,852L960,852L1085,977Z" fill="#c6e8ab" stroke="#c6e8ab" stroke-width="1.51"/><path d="M960,852L960,977L1085,977Z" fill="#c0e5af" stroke="#c0e5af" stroke-width="1.51"/><path d="M1085,1102L960,1102L1085,1227Z" fill="#a5bfb9" stroke="#a5bfb9" stroke-width="1.51"/><path d="M960,1102L960,1227L1085,1227Z" fill="#aab7b9" stroke="#aab7b9" stroke-width="1.51"/><path d="M1085,352L960,352L1085,477Z" fill="#fbef9e" stroke="#fbef9e" stroke-width="1.51"/><path d="M960,352L960,477L1085,477Z" fill="#fdf3a9" stroke="#fdf3a9" stroke-width="1.51"/><path d="M960,602L1085,602L1085,477Z" fill="#f9fdb6" stroke="#f9fdb6" stroke-width="1.51"/><path d="M960,477L960,602L1085,477Z" fill="#fdfcb8" stroke="#fdfcb8" stroke-width="1.51"/><path d="M835,1227L960,1227L960,1102Z" fill="#adb6b8" stroke="#adb6b8" stroke-width="1.51"/><path d="M835,1102L835,1227L960,1102Z" fill="#aabbb7" stroke="#aabbb7" stroke-width="1.51"/><path d="M835,1102L960,1102L960,977Z" fill="#b1cfb4" stroke="#b1cfb4" stroke-width="1.51"/><path d="M835,977L835,1102L960,977Z" fill="#b6d5ac" stroke="#b6d5ac" stroke-width="1.51"/><path d="M835,977L960,977L960,852Z" fill="#c3e3ae" stroke="#c3e3ae" stroke-width="1.51"/><path d="M835,852L835,977L960,852Z" fill="#cce4a9" stroke="#cce4a9" stroke-width="1.51"/><path d="M835,852L960,852L960,727Z" fill="#dbeeac" stroke="#dbeeac" stroke-width="1.51"/><path d="M835,727L835,852L960,727Z" fill="#e4eea6" stroke="#e4eea6" stroke-width="1.51"/><path d="M835,727L960,727L960,602Z" fill="#f3f8a8" stroke="#f3f8a8" stroke-width="1.51"/><path d="M835,602L835,727L960,602Z" fill="#f7f6a9" stroke="#f7f6a9" stroke-width="1.51"/><path d="M835,602L960,602L960,477Z" fill="#fefcb8" stroke="#fefcb8" stroke-width="1.51"/><path d="M835,477L835,602L960,477Z" fill="#fff7b2" stroke="#fff7b2" stroke-width="1.51"/><path d="M835,477L960,477L960,352Z" fill="#fff1a8" stroke="#fff1a8" stroke-width="1.51"/><path d="M835,352L835,477L960,352Z" fill="#ffea9c" stroke="#ffea9c" stroke-width="1.51"/><path d="M835,352L960,352L960,227Z" fill="#ffe095" stroke="#ffe095" stroke-width="1.51"/><path d="M835,227L835,352L960,227Z" fill="#ffd68b" stroke="#ffd68b" stroke-width="1.51"/><path d="M835,227L960,227L960,102Z" fill="#ffc985" stroke="#ffc985" stroke-width="1.51"/><path d="M835,102L835,227L960,102Z" fill="#ffbd7c" stroke="#ffbd7c" stroke-width="1.51"/><path d="M835,102L960,102L960,-23Z" fill="#fdb27c" stroke="#fdb27c" stroke-width="1.51"/><path d="M835,-23L835,102L960,-23Z" fill="#f8a979" stroke="#f8a979" stroke-width="1.51"/><path d="M835,-23L960,-23L960,-148Z" fill="#efa180" stroke="#efa180" stroke-width="1.51"/><path d="M835,-148L835,-23L960,-148Z" fill="#e7987a" stroke="#e7987a" stroke-width="1.51"/><path d="M835,852L710,852L835,977Z" fill="#cdde9f" stroke="#cdde9f" stroke-width="1.51"/><path d="M710,852L710,977L835,977Z" fill="#c5d89b" stroke="#c5d89b" stroke-width="1.51"/><path d="M835,-148L710,-148L835,-23Z" fill="#e69371" stroke="#e69371" stroke-width="1.51"/><path d="M710,-148L710,-23L835,-23Z" fill="#ed966f" stroke="#ed966f" stroke-width="1.51"/><path d="M835,-23L710,-23L835,102Z" fill="#f6a470" stroke="#f6a470" stroke-width="1.51"/><path d="M710,-23L710,102L835,102Z" fill="#faa76a" stroke="#faa76a" stroke-width="1.51"/><path d="M835,102L710,102L835,227Z" fill="#ffb873" stroke="#ffb873" stroke-width="1.51"/><path d="M710,102L710,227L835,227Z" fill="#febe73" stroke="#febe73" stroke-width="1.51"/><path d="M835,227L710,227L835,352Z" fill="#ffd181" stroke="#ffd181" stroke-width="1.51"/><path d="M710,227L710,352L835,352Z" fill="#fed582" stroke="#fed582" stroke-width="1.51"/><path d="M835,352L710,352L835,477Z" fill="#ffe593" stroke="#ffe593" stroke-width="1.51"/><path d="M710,352L710,477L835,477Z" fill="#ffe696" stroke="#ffe696" stroke-width="1.51"/><path d="M835,477L710,477L835,602Z" fill="#fff2a9" stroke="#fff2a9" stroke-width="1.51"/><path d="M710,477L710,602L835,602Z" fill="#fdf1a5" stroke="#fdf1a5" stroke-width="1.51"/><path d="M710,852L835,852L835,727Z" fill="#dce69e" stroke="#dce69e" stroke-width="1.51"/><path d="M710,727L710,852L835,727Z" fill="#e4e698" stroke="#e4e698" stroke-width="1.51"/><path d="M835,602L710,602L835,727Z" fill="#f7f19f" stroke="#f7f19f" stroke-width="1.51"/><path d="M710,602L710,727L835,727Z" fill="#f3ed95" stroke="#f3ed95" stroke-width="1.51"/><path d="M835,977L710,977L835,1102Z" fill="#b8d0a3" stroke="#b8d0a3" stroke-width="1.51"/><path d="M710,977L710,1102L835,1102Z" fill="#b4c5a3" stroke="#b4c5a3" stroke-width="1.51"/><path d="M835,1102L710,1102L835,1227Z" fill="#acb6ae" stroke="#acb6ae" stroke-width="1.51"/><path d="M710,1102L710,1227L835,1227Z" fill="#afaba6" stroke="#afaba6" stroke-width="1.51"/><path d="M710,-148L585,-148L710,-23Z" fill="#e48866" stroke="#e48866" stroke-width="1.51"/><path d="M585,-148L585,-23L710,-23Z" fill="#eb8a64" stroke="#eb8a64" stroke-width="1.51"/><path d="M710,-23L585,-23L710,102Z" fill="#f49964" stroke="#f49964" stroke-width="1.51"/><path d="M585,-23L585,102L710,102Z" fill="#f89a5f" stroke="#f89a5f" stroke-width="1.51"/><path d="M585,977L710,977L710,852Z" fill="#c6d194" stroke="#c6d194" stroke-width="1.51"/><path d="M585,852L585,977L710,852Z" fill="#ced08f" stroke="#ced08f" stroke-width="1.51"/><path d="M710,352L585,352L710,477Z" fill="#fedb86" stroke="#fedb86" stroke-width="1.51"/><path d="M585,352L585,477L710,477Z" fill="#ffda8a" stroke="#ffda8a" stroke-width="1.51"/><path d="M710,477L585,477L710,602Z" fill="#ffe89c" stroke="#ffe89c" stroke-width="1.51"/><path d="M585,477L585,602L710,602Z" fill="#fee59a" stroke="#fee59a" stroke-width="1.51"/><path d="M585,852L710,852L710,727Z" fill="#dddc92" stroke="#dddc92" stroke-width="1.51"/><path d="M585,727L585,852L710,727Z" fill="#e5da8c" stroke="#e5da8c" stroke-width="1.51"/><path d="M710,602L585,602L710,727Z" fill="#f7e792" stroke="#f7e792" stroke-width="1.51"/><path d="M585,602L585,727L710,727Z" fill="#f4e189" stroke="#f4e189" stroke-width="1.51"/><path d="M710,977L585,977L710,1102Z" fill="#bac797" stroke="#bac797" stroke-width="1.51"/><path d="M585,977L585,1102L710,1102Z" fill="#b6b997" stroke="#b6b997" stroke-width="1.51"/><path d="M585,1227L710,1227L710,1102Z" fill="#b0a49e" stroke="#b0a49e" stroke-width="1.51"/><path d="M585,1102L585,1227L710,1102Z" fill="#afa89e" stroke="#afa89e" stroke-width="1.51"/><path d="M710,102L585,102L710,227Z" fill="#fdae66" stroke="#fdae66" stroke-width="1.51"/><path d="M585,102L585,227L710,227Z" fill="#fdb268" stroke="#fdb268" stroke-width="1.51"/><path d="M585,352L710,352L710,227Z" fill="#fece7a" stroke="#fece7a" stroke-width="1.51"/><path d="M585,227L585,352L710,227Z" fill="#fec271" stroke="#fec271" stroke-width="1.51"/><path d="M585,-148L460,-148L585,-23Z" fill="#e37a5b" stroke="#e37a5b" stroke-width="1.51"/><path d="M460,-148L460,-23L585,-23Z" fill="#e97c5a" stroke="#e97c5a" stroke-width="1.51"/><path d="M585,-23L460,-23L585,102Z" fill="#f38b5a" stroke="#f38b5a" stroke-width="1.51"/><path d="M460,-23L460,102L585,102Z" fill="#f78d55" stroke="#f78d55" stroke-width="1.51"/><path d="M585,102L460,102L585,227Z" fill="#fca05c" stroke="#fca05c" stroke-width="1.51"/><path d="M460,102L460,227L585,227Z" fill="#fca55d" stroke="#fca55d" stroke-width="1.51"/><path d="M585,227L460,227L585,352Z" fill="#feb96a" stroke="#feb96a" stroke-width="1.51"/><path d="M460,227L460,352L585,352Z" fill="#febc6c" stroke="#febc6c" stroke-width="1.51"/><path d="M585,352L460,352L585,477Z" fill="#ffce7b" stroke="#ffce7b" stroke-width="1.51"/><path d="M460,352L460,477L585,477Z" fill="#ffce7f" stroke="#ffce7f" stroke-width="1.51"/><path d="M585,477L460,477L585,602Z" fill="#ffda91" stroke="#ffda91" stroke-width="1.51"/><path d="M460,477L460,602L585,602Z" fill="#ffd88e" stroke="#ffd88e" stroke-width="1.51"/><path d="M585,602L460,602L585,727Z" fill="#f8d987" stroke="#f8d987" stroke-width="1.51"/><path d="M460,602L460,727L585,727Z" fill="#f5d47e" stroke="#f5d47e" stroke-width="1.51"/><path d="M585,727L460,727L585,852Z" fill="#e6d285" stroke="#e6d285" stroke-width="1.51"/><path d="M460,727L460,852L585,852Z" fill="#dfcb83" stroke="#dfcb83" stroke-width="1.51"/><path d="M585,852L460,852L585,977Z" fill="#d0c888" stroke="#d0c888" stroke-width="1.51"/><path d="M460,852L460,977L585,977Z" fill="#c9c185" stroke="#c9c185" stroke-width="1.51"/><path d="M460,1227L585,1227L585,1102Z" fill="#b39793" stroke="#b39793" stroke-width="1.51"/><path d="M460,1102L460,1227L585,1102Z" fill="#b19c93" stroke="#b19c93" stroke-width="1.51"/><path d="M585,977L460,977L585,1102Z" fill="#bcba8c" stroke="#bcba8c" stroke-width="1.51"/><path d="M460,977L460,1102L585,1102Z" fill="#b9ad8c" stroke="#b9ad8c" stroke-width="1.51"/><path d="M460,-148L335,-148L460,-23Z" fill="#e06a52" stroke="#e06a52" stroke-width="1.51"/><path d="M335,-148L335,-23L460,-23Z" fill="#e76a52" stroke="#e76a52" stroke-width="1.51"/><path d="M460,-23L335,-23L460,102Z" fill="#f17c51" stroke="#f17c51" stroke-width="1.51"/><path d="M335,-23L335,102L460,102Z" fill="#f47b4c" stroke="#f47b4c" stroke-width="1.51"/><path d="M460,102L335,102L460,227Z" fill="#fa9152" stroke="#fa9152" stroke-width="1.51"/><path d="M335,102L335,227L460,227Z" fill="#fb9454" stroke="#fb9454" stroke-width="1.51"/><path d="M460,477L335,477L460,602Z" fill="#ffcc87" stroke="#ffcc87" stroke-width="1.51"/><path d="M335,477L335,602L460,602Z" fill="#ffc885" stroke="#ffc885" stroke-width="1.51"/><path d="M460,602L335,602L460,727Z" fill="#f8cb7d" stroke="#f8cb7d" stroke-width="1.51"/><path d="M335,602L335,727L460,727Z" fill="#f5c475" stroke="#f5c475" stroke-width="1.51"/><path d="M335,977L460,977L460,852Z" fill="#cab77f" stroke="#cab77f" stroke-width="1.51"/><path d="M335,852L335,977L460,852Z" fill="#d2b57b" stroke="#d2b57b" stroke-width="1.51"/><path d="M460,727L335,727L460,852Z" fill="#e7c47b" stroke="#e7c47b" stroke-width="1.51"/><path d="M335,727L335,852L460,852Z" fill="#e0bc7a" stroke="#e0bc7a" stroke-width="1.51"/><path d="M335,1227L460,1227L460,1102Z" fill="#b4898a" stroke="#b4898a" stroke-width="1.51"/><path d="M335,1102L335,1227L460,1102Z" fill="#b28d8a" stroke="#b28d8a" stroke-width="1.51"/><path d="M460,977L335,977L460,1102Z" fill="#beac82" stroke="#beac82" stroke-width="1.51"/><path d="M335,977L335,1102L460,1102Z" fill="#ba9e83" stroke="#ba9e83" stroke-width="1.51"/><path d="M460,227L335,227L460,352Z" fill="#fdab60" stroke="#fdab60" stroke-width="1.51"/><path d="M335,227L335,352L460,352Z" fill="#fdac63" stroke="#fdac63" stroke-width="1.51"/><path d="M335,477L460,477L460,352Z" fill="#ffc379" stroke="#ffc379" stroke-width="1.51"/><path d="M335,352L335,477L460,352Z" fill="#feba6f" stroke="#feba6f" stroke-width="1.51"/><path d="M335,-148L210,-148L335,-23Z" fill="#dd574b" stroke="#dd574b" stroke-width="1.51"/><path d="M210,-148L210,-23L335,-23Z" fill="#e4574a" stroke="#e4574a" stroke-width="1.51"/><path d="M335,-23L210,-23L335,102Z" fill="#ee6949" stroke="#ee6949" stroke-width="1.51"/><path d="M210,-23L210,102L335,102Z" fill="#f16945" stroke="#f16945" stroke-width="1.51"/><path d="M335,102L210,102L335,227Z" fill="#f7804b" stroke="#f7804b" stroke-width="1.51"/><path d="M210,102L210,227L335,227Z" fill="#f8834d" stroke="#f8834d" stroke-width="1.51"/><path d="M335,227L210,227L335,352Z" fill="#fb9a59" stroke="#fb9a59" stroke-width="1.51"/><path d="M210,227L210,352L335,352Z" fill="#fb9c5b" stroke="#fb9c5b" stroke-width="1.51"/><path d="M335,352L210,352L335,477Z" fill="#fdaf6a" stroke="#fdaf6a" stroke-width="1.51"/><path d="M210,352L210,477L335,477Z" fill="#feae6e" stroke="#feae6e" stroke-width="1.51"/><path d="M335,477L210,477L335,602Z" fill="#ffbc7f" stroke="#ffbc7f" stroke-width="1.51"/><path d="M210,477L210,602L335,602Z" fill="#ffb87d" stroke="#ffb87d" stroke-width="1.51"/><path d="M335,602L210,602L335,727Z" fill="#f8bb75" stroke="#f8bb75" stroke-width="1.51"/><path d="M210,602L210,727L335,727Z" fill="#f4b56d" stroke="#f4b56d" stroke-width="1.51"/><path d="M335,727L210,727L335,852Z" fill="#e7b473" stroke="#e7b473" stroke-width="1.51"/><path d="M210,727L210,852L335,852Z" fill="#e0ac72" stroke="#e0ac72" stroke-width="1.51"/><path d="M335,852L210,852L335,977Z" fill="#d1ab76" stroke="#d1ab76" stroke-width="1.51"/><path d="M210,852L210,977L335,977Z" fill="#caa274" stroke="#caa274" stroke-width="1.51"/><path d="M335,977L210,977L335,1102Z" fill="#bf9d7a" stroke="#bf9d7a" stroke-width="1.51"/><path d="M210,977L210,1102L335,1102Z" fill="#ba8f7b" stroke="#ba8f7b" stroke-width="1.51"/><path d="M335,1102L210,1102L335,1227Z" fill="#b28384" stroke="#b28384" stroke-width="1.51"/><path d="M210,1102L210,1227L335,1227Z" fill="#b3757e" stroke="#b3757e" stroke-width="1.51"/><path d="M210,-148L85,-148L210,-23Z" fill="#d7484a" stroke="#d7484a" stroke-width="1.51"/><path d="M85,-148L85,-23L210,-23Z" fill="#dc4a4d" stroke="#dc4a4d" stroke-width="1.51"/><path d="M210,-23L85,-23L210,102Z" fill="#e85b49" stroke="#e85b49" stroke-width="1.51"/><path d="M85,-23L85,102L210,102Z" fill="#e95d48" stroke="#e95d48" stroke-width="1.51"/><path d="M210,102L85,102L210,227Z" fill="#f1724b" stroke="#f1724b" stroke-width="1.51"/><path d="M85,102L85,227L210,227Z" fill="#f07850" stroke="#f07850" stroke-width="1.51"/><path d="M85,1102L210,1102L210,977Z" fill="#b6887c" stroke="#b6887c" stroke-width="1.51"/><path d="M85,977L85,1102L210,977Z" fill="#b78e79" stroke="#b78e79" stroke-width="1.51"/><path d="M210,477L85,477L210,602Z" fill="#fbaf7e" stroke="#fbaf7e" stroke-width="1.51"/><path d="M85,477L85,602L210,602Z" fill="#f7ae80" stroke="#f7ae80" stroke-width="1.51"/><path d="M210,602L85,602L210,727Z" fill="#f3af74" stroke="#f3af74" stroke-width="1.51"/><path d="M85,602L85,727L210,727Z" fill="#ecaa70" stroke="#ecaa70" stroke-width="1.51"/><path d="M85,977L210,977L210,852Z" fill="#c69c75" stroke="#c69c75" stroke-width="1.51"/><path d="M85,852L85,977L210,852Z" fill="#ca9b75" stroke="#ca9b75" stroke-width="1.51"/><path d="M210,727L85,727L210,852Z" fill="#e2a872" stroke="#e2a872" stroke-width="1.51"/><path d="M85,727L85,852L210,852Z" fill="#d8a274" stroke="#d8a274" stroke-width="1.51"/><path d="M210,1102L85,1102L210,1227Z" fill="#ad7782" stroke="#ad7782" stroke-width="1.51"/><path d="M85,1102L85,1227L210,1227Z" fill="#ab6a80" stroke="#ab6a80" stroke-width="1.51"/><path d="M210,227L85,227L210,352Z" fill="#f58d58" stroke="#f58d58" stroke-width="1.51"/><path d="M85,227L85,352L210,352Z" fill="#f3915e" stroke="#f3915e" stroke-width="1.51"/><path d="M85,477L210,477L210,352Z" fill="#f9a670" stroke="#f9a670" stroke-width="1.51"/><path d="M85,352L85,477L210,352Z" fill="#f59f6a" stroke="#f59f6a" stroke-width="1.51"/><path d="M85,-148L-40,-148L85,-23Z" fill="#ce3a4d" stroke="#ce3a4d" stroke-width="1.51"/><path d="M-40,-148L-40,-23L85,-23Z" fill="#d33d4f" stroke="#d33d4f" stroke-width="1.51"/><path d="M85,-23L-40,-23L85,102Z" fill="#df4f4c" stroke="#df4f4c" stroke-width="1.51"/><path d="M-40,-23L-40,102L85,102Z" fill="#e1514b" stroke="#e1514b" stroke-width="1.51"/><path d="M85,102L-40,102L85,227Z" fill="#e9674e" stroke="#e9674e" stroke-width="1.51"/><path d="M-40,102L-40,227L85,227Z" fill="#e86d53" stroke="#e86d53" stroke-width="1.51"/><path d="M85,227L-40,227L85,352Z" fill="#ed825c" stroke="#ed825c" stroke-width="1.51"/><path d="M-40,227L-40,352L85,352Z" fill="#eb8661" stroke="#eb8661" stroke-width="1.51"/><path d="M85,352L-40,352L85,477Z" fill="#ef986c" stroke="#ef986c" stroke-width="1.51"/><path d="M-40,352L-40,477L85,477Z" fill="#ee9874" stroke="#ee9874" stroke-width="1.51"/><path d="M85,477L-40,477L85,602Z" fill="#f2a581" stroke="#f2a581" stroke-width="1.51"/><path d="M-40,477L-40,602L85,602Z" fill="#eea382" stroke="#eea382" stroke-width="1.51"/><path d="M85,602L-40,602L85,727Z" fill="#eba477" stroke="#eba477" stroke-width="1.51"/><path d="M-40,602L-40,727L85,727Z" fill="#e4a073" stroke="#e4a073" stroke-width="1.51"/><path d="M85,727L-40,727L85,852Z" fill="#da9d75" stroke="#da9d75" stroke-width="1.51"/><path d="M-40,727L-40,852L85,852Z" fill="#d09877" stroke="#d09877" stroke-width="1.51"/><path d="M85,852L-40,852L85,977Z" fill="#c59477" stroke="#c59477" stroke-width="1.51"/><path d="M-40,852L-40,977L85,977Z" fill="#bb8e78" stroke="#bb8e78" stroke-width="1.51"/><path d="M85,977L-40,977L85,1102Z" fill="#b2877a" stroke="#b2877a" stroke-width="1.51"/><path d="M-40,977L-40,1102L85,1102Z" fill="#aa7b7e" stroke="#aa7b7e" stroke-width="1.51"/><path d="M85,1102L-40,1102L85,1227Z" fill="#a56d84" stroke="#a56d84" stroke-width="1.51"/><path d="M-40,1102L-40,1227L85,1227Z" fill="#a26081" stroke="#a26081" stroke-width="1.51"/><path d="M-40,-148L-165,-148L-40,-23Z" fill="#c22e4b" stroke="#c22e4b" stroke-width="1.51"/><path d="M-165,-148L-165,-23L-40,-23Z" fill="#c4304c" stroke="#c4304c" stroke-width="1.51"/><path d="M-40,-23L-165,-23L-40,102Z" fill="#d2434a" stroke="#d2434a" stroke-width="1.51"/><path d="M-165,-23L-165,102L-40,102Z" fill="#d24648" stroke="#d24648" stroke-width="1.51"/><path d="M-40,102L-165,102L-40,227Z" fill="#dc5c4c" stroke="#dc5c4c" stroke-width="1.51"/><path d="M-165,102L-165,227L-40,227Z" fill="#d96250" stroke="#d96250" stroke-width="1.51"/><path d="M-40,227L-165,227L-40,352Z" fill="#e1785a" stroke="#e1785a" stroke-width="1.51"/><path d="M-165,227L-165,352L-40,352Z" fill="#dc7b5e" stroke="#dc7b5e" stroke-width="1.51"/><path d="M-40,602L-165,602L-40,727Z" fill="#de9a75" stroke="#de9a75" stroke-width="1.51"/><path d="M-165,602L-165,727L-40,727Z" fill="#d6956f" stroke="#d6956f" stroke-width="1.51"/><path d="M-40,727L-165,727L-40,852Z" fill="#cd9373" stroke="#cd9373" stroke-width="1.51"/><path d="M-165,727L-165,852L-40,852Z" fill="#c18d73" stroke="#c18d73" stroke-width="1.51"/><path d="M-165,1102L-40,1102L-40,977Z" fill="#a1747b" stroke="#a1747b" stroke-width="1.51"/><path d="M-165,977L-165,1102L-40,977Z" fill="#a07a77" stroke="#a07a77" stroke-width="1.51"/><path d="M-40,852L-165,852L-40,977Z" fill="#b88a75" stroke="#b88a75" stroke-width="1.51"/><path d="M-165,852L-165,977L-40,977Z" fill="#ac8374" stroke="#ac8374" stroke-width="1.51"/><path d="M-40,1102L-165,1102L-40,1227Z" fill="#986381" stroke="#986381" stroke-width="1.51"/><path d="M-165,1102L-165,1227L-40,1227Z" fill="#94567d" stroke="#94567d" stroke-width="1.51"/><path d="M-40,352L-165,352L-40,477Z" fill="#e38d6a" stroke="#e38d6a" stroke-width="1.51"/><path d="M-165,352L-165,477L-40,477Z" fill="#df8d70" stroke="#df8d70" stroke-width="1.51"/><path d="M-165,602L-40,602L-40,477Z" fill="#e59c7f" stroke="#e59c7f" stroke-width="1.51"/><path d="M-165,477L-165,602L-40,477Z" fill="#e1967d" stroke="#e1967d" stroke-width="1.51"/></svg>
