<svg xmlns="http://www.w3.org/2000/svg" width="192" height="108"><path d="M206,-11L196,-11L206,-1Z" fill="#994e7a" stroke="#994e7a" stroke-width="1.51"/><path d="M196,-11L196,-1L206,-1Z" fill="#a0587e" stroke="#a0587e" stroke-width="1.51"/><path d="M206,-1L196,-1L206,9Z" fill="#a95c7c" stroke="#a95c7c" stroke-width="1.51"/><path d="M196,-1L196,9L206,9Z" fill="#ad667d" stroke="#ad667d" stroke-width="1.51"/><path d="M206,9L196,9L206,19Z" fill="#b46a7a" stroke="#b46a7a" stroke-width="1.51"/><path d="M196,9L196,19L206,19Z" fill="#b47680" stroke="#b47680" stroke-width="1.51"/><path d="M206,19L196,19L206,29Z" fill="#b57f86" stroke="#b57f86" stroke-width="1.51"/><path d="M196,19L196,29L206,29Z" fill="#b58b8c" stroke="#b58b8c" stroke-width="1.51"/><path d="M206,29L196,29L206,39Z" fill="#b49294" stroke="#b49294" stroke-width="1.51"/><path d="M196,29L196,39L206,39Z" fill="#b29d9b" stroke="#b29d9b" stroke-width="1.51"/><path d="M206,39L196,39L206,49Z" fill="#b2a1a3" stroke="#b2a1a3" stroke-width="1.51"/><path d="M196,39L196,49L206,49Z" fill="#b0aaab" stroke="#b0aaab" stroke-width="1.51"/><path d="M206,49L196,49L206,59Z" fill="#b0acb5" stroke="#b0acb5" stroke-width="1.51"/><path d="M196,49L196,59L206,59Z" fill="#adb2b7" stroke="#adb2b7" stroke-width="1.51"/><path d="M206,59L196,59L206,69Z" fill="#a9abad" stroke="#a9abad" stroke-width="1.51"/><path d="M196,59L196,69L206,69Z" fill="#a5afab" stroke="#a5afab" stroke-width="1.51"/><path d="M206,69L196,69L206,79Z" fill="#9ca6a7" stroke="#9ca6a7" stroke-width="1.51"/><path d="M196,69L196,79L206,79Z" fill="#93a8aa" stroke="#93a8aa" stroke-width="1.51"/><path d="M196,99L206,99L206,89Z" fill="#6493aa" stroke="#6493aa" stroke-width="1.51"/><path d="M196,89L196,99L206,89Z" fill="#6a9aac" stroke="#6a9aac" stroke-width="1.51"/><path d="M206,79L196,79L206,89Z" fill="#869eaa" stroke="#869eaa" stroke-width="1.51"/><path d="M196,79L196,89L206,89Z" fill="#7ba0ac" stroke="#7ba0ac" stroke-width="1.51"/><path d="M206,99L196,99L206,109Z" fill="#5885af" stroke="#5885af" stroke-width="1.51"/><path d="M196,99L196,109L206,109Z" fill="#4f83b3" stroke="#4f83b3" stroke-width="1.51"/><path d="M206,109L196,109L206,119Z" fill="#4c72b2" stroke="#4c72b2" stroke-width="1.51"/><path d="M196,109L196,119L206,119Z" fill="#4e70b1" stroke="#4e70b1" stroke-width="1.51"/><path d="M196,-11L186,-11L196,-1Z" fill="#985d7f" stroke="#985d7f" stroke-width="1.51"/><path d="M186,-11L186,-1L196,-1Z" fill="#9e6682" stroke="#9e6682" stroke-width="1.51"/><path d="M196,-1L186,-1L196,9Z" fill="#a86b82" stroke="#a86b82" stroke-width="1.51"/><path d="M186,-1L186,9L196,9Z" fill="#ab7482" stroke="#ab7482" stroke-width="1.51"/><path d="M196,9L186,9L196,19Z" fill="#b37880" stroke="#b37880" stroke-width="1.51"/><path d="M186,9L186,19L196,19Z" fill="#b38485" stroke="#b38485" stroke-width="1.51"/><path d="M186,99L196,99L196,89Z" fill="#5a9faf" stroke="#5a9faf" stroke-width="1.51"/><path d="M186,89L186,99L196,89Z" fill="#60a6b1" stroke="#60a6b1" stroke-width="1.51"/><path d="M196,39L186,39L196,49Z" fill="#aeafa9" stroke="#aeafa9" stroke-width="1.51"/><path d="M186,39L186,49L196,49Z" fill="#acb7b0" stroke="#acb7b0" stroke-width="1.51"/><path d="M196,49L186,49L196,59Z" fill="#abb9bb" stroke="#abb9bb" stroke-width="1.51"/><path d="M186,49L186,59L196,59Z" fill="#a8bfbd" stroke="#a8bfbd" stroke-width="1.51"/><path d="M196,59L186,59L196,69Z" fill="#a4b8b3" stroke="#a4b8b3" stroke-width="1.51"/><path d="M186,59L186,69L196,69Z" fill="#a0bcb0" stroke="#a0bcb0" stroke-width="1.51"/><path d="M186,89L196,89L196,79Z" fill="#76a8af" stroke="#76a8af" stroke-width="1.51"/><path d="M186,79L186,89L196,79Z" fill="#7cafb1" stroke="#7cafb1" stroke-width="1.51"/><path d="M196,69L186,69L196,79Z" fill="#96b3ad" stroke="#96b3ad" stroke-width="1.51"/><path d="M186,69L186,79L196,79Z" fill="#8db5af" stroke="#8db5af" stroke-width="1.51"/><path d="M196,99L186,99L196,109Z" fill="#4d92b5" stroke="#4d92b5" stroke-width="1.51"/><path d="M186,99L186,109L196,109Z" fill="#418fb9" stroke="#418fb9" stroke-width="1.51"/><path d="M186,119L196,119L196,109Z" fill="#4778b5" stroke="#4778b5" stroke-width="1.51"/><path d="M186,109L186,119L196,109Z" fill="#3b82b9" stroke="#3b82b9" stroke-width="1.51"/><path d="M196,19L186,19L196,29Z" fill="#b38d8b" stroke="#b38d8b" stroke-width="1.51"/><path d="M186,19L186,29L196,29Z" fill="#b29991" stroke="#b29991" stroke-width="1.51"/><path d="M186,39L196,39L196,29Z" fill="#b0a59e" stroke="#b0a59e" stroke-width="1.51"/><path d="M186,29L186,39L196,29Z" fill="#b0a49b" stroke="#b0a49b" stroke-width="1.51"/><path d="M186,-11L176,-11L186,-1Z" fill="#9b6b7f" stroke="#9b6b7f" stroke-width="1.51"/><path d="M176,-11L176,-1L186,-1Z" fill="#a4747f" stroke="#a4747f" stroke-width="1.51"/><path d="M186,-1L176,-1L186,9Z" fill="#ab7881" stroke="#ab7881" stroke-width="1.51"/><path d="M176,-1L176,9L186,9Z" fill="#b1817e" stroke="#b1817e" stroke-width="1.51"/><path d="M186,9L176,9L186,19Z" fill="#b6867f" stroke="#b6867f" stroke-width="1.51"/><path d="M176,9L176,19L186,19Z" fill="#b89181" stroke="#b89181" stroke-width="1.51"/><path d="M186,19L176,19L186,29Z" fill="#b59b8b" stroke="#b59b8b" stroke-width="1.51"/><path d="M176,19L176,29L186,29Z" fill="#b7a68d" stroke="#b7a68d" stroke-width="1.51"/><path d="M186,29L176,29L186,39Z" fill="#b3ad98" stroke="#b3ad98" stroke-width="1.51"/><path d="M176,29L176,39L186,39Z" fill="#b4b79c" stroke="#b4b79c" stroke-width="1.51"/><path d="M186,39L176,39L186,49Z" fill="#b0bca8" stroke="#b0bca8" stroke-width="1.51"/><path d="M176,39L176,49L186,49Z" fill="#b1c4ac" stroke="#b1c4ac" stroke-width="1.51"/><path d="M186,49L176,49L186,59Z" fill="#acc7ba" stroke="#acc7ba" stroke-width="1.51"/><path d="M176,49L176,59L186,59Z" fill="#adccb9" stroke="#adccb9" stroke-width="1.51"/><path d="M186,59L176,59L186,69Z" fill="#a5c5b2" stroke="#a5c5b2" stroke-width="1.51"/><path d="M176,59L176,69L186,69Z" fill="#a5c9ac" stroke="#a5c9ac" stroke-width="1.51"/><path d="M186,69L176,69L186,79Z" fill="#97c0ac" stroke="#97c0ac" stroke-width="1.51"/><path d="M176,69L176,79L186,79Z" fill="#92c2ab" stroke="#92c2ab" stroke-width="1.51"/><path d="M186,79L176,79L186,89Z" fill="#7fb8af" stroke="#7fb8af" stroke-width="1.51"/><path d="M176,79L176,89L186,89Z" fill="#78b9ad" stroke="#78b9ad" stroke-width="1.51"/><path d="M186,89L176,89L186,99Z" fill="#63afaf" stroke="#63afaf" stroke-width="1.51"/><path d="M176,89L176,99L186,99Z" fill="#5cb0ad" stroke="#5cb0ad" stroke-width="1.51"/><path d="M176,119L186,119L186,109Z" fill="#4983b5" stroke="#4983b5" stroke-width="1.51"/><path d="M176,109L176,119L186,109Z" fill="#478eb7" stroke="#478eb7" stroke-width="1.51"/><path d="M186,99L176,99L186,109Z" fill="#4d9eb5" stroke="#4d9eb5" stroke-width="1.51"/><path d="M176,99L176,109L186,109Z" fill="#4b9bb6" stroke="#4b9bb6" stroke-width="1.51"/><path d="M176,-11L166,-11L176,-1Z" fill="#a2787a" stroke="#a2787a" stroke-width="1.51"/><path d="M166,-11L166,-1L176,-1Z" fill="#ab817a" stroke="#ab817a" stroke-width="1.51"/><path d="M176,-1L166,-1L176,9Z" fill="#b2867c" stroke="#b2867c" stroke-width="1.51"/><path d="M166,-1L166,9L176,9Z" fill="#b88f78" stroke="#b88f78" stroke-width="1.51"/><path d="M176,9L166,9L176,19Z" fill="#bc9479" stroke="#bc9479" stroke-width="1.51"/><path d="M166,9L166,19L176,19Z" fill="#bf9f7b" stroke="#bf9f7b" stroke-width="1.51"/><path d="M176,19L166,19L176,29Z" fill="#bca885" stroke="#bca885" stroke-width="1.51"/><path d="M166,19L166,29L176,29Z" fill="#bdb486" stroke="#bdb486" stroke-width="1.51"/><path d="M176,29L166,29L176,39Z" fill="#b9ba92" stroke="#b9ba92" stroke-width="1.51"/><path d="M166,29L166,39L176,39Z" fill="#bac595" stroke="#bac595" stroke-width="1.51"/><path d="M176,39L166,39L176,49Z" fill="#b6c9a2" stroke="#b6c9a2" stroke-width="1.51"/><path d="M166,39L166,49L176,49Z" fill="#b7d2a6" stroke="#b7d2a6" stroke-width="1.51"/><path d="M176,49L166,49L176,59Z" fill="#b3d4b4" stroke="#b3d4b4" stroke-width="1.51"/><path d="M166,49L166,59L176,59Z" fill="#b3dab2" stroke="#b3dab2" stroke-width="1.51"/><path d="M176,59L166,59L176,69Z" fill="#acd3ac" stroke="#acd3ac" stroke-width="1.51"/><path d="M166,59L166,69L176,69Z" fill="#abd7a5" stroke="#abd7a5" stroke-width="1.51"/><path d="M176,69L166,69L176,79Z" fill="#9dcda6" stroke="#9dcda6" stroke-width="1.51"/><path d="M166,69L166,79L176,79Z" fill="#98cfa5" stroke="#98cfa5" stroke-width="1.51"/><path d="M166,99L176,99L176,89Z" fill="#61b8aa" stroke="#61b8aa" stroke-width="1.51"/><path d="M166,89L166,99L176,89Z" fill="#6ec0a8" stroke="#6ec0a8" stroke-width="1.51"/><path d="M176,79L166,79L176,89Z" fill="#86c5a9" stroke="#86c5a9" stroke-width="1.51"/><path d="M166,79L166,89L176,89Z" fill="#7fc6a7" stroke="#7fc6a7" stroke-width="1.51"/><path d="M176,99L166,99L176,109Z" fill="#58aab0" stroke="#58aab0" stroke-width="1.51"/><path d="M166,99L166,109L176,109Z" fill="#56a8b0" stroke="#56a8b0" stroke-width="1.51"/><path d="M176,109L166,109L176,119Z" fill="#4f96b3" stroke="#4f96b3" stroke-width="1.51"/><path d="M166,109L166,119L176,119Z" fill="#5a94af" stroke="#5a94af" stroke-width="1.51"/><path d="M166,-11L156,-11L166,-1Z" fill="#aa8475" stroke="#aa8475" stroke-width="1.51"/><path d="M156,-11L156,-1L166,-1Z" fill="#b48a77" stroke="#b48a77" stroke-width="1.51"/><path d="M166,-1L156,-1L166,9Z" fill="#ba9277" stroke="#ba9277" stroke-width="1.51"/><path d="M156,-1L156,9L166,9Z" fill="#c19875" stroke="#c19875" stroke-width="1.51"/><path d="M166,9L156,9L166,19Z" fill="#c4a074" stroke="#c4a074" stroke-width="1.51"/><path d="M156,9L156,19L166,19Z" fill="#c8a878" stroke="#c8a878" stroke-width="1.51"/><path d="M166,19L156,19L166,29Z" fill="#c3b47f" stroke="#c3b47f" stroke-width="1.51"/><path d="M156,19L156,29L166,29Z" fill="#c6bd83" stroke="#c6bd83" stroke-width="1.51"/><path d="M156,109L166,109L166,99Z" fill="#5eafae" stroke="#5eafae" stroke-width="1.51"/><path d="M156,99L156,109L166,99Z" fill="#69b8ab" stroke="#69b8ab" stroke-width="1.51"/><path d="M166,49L156,49L166,59Z" fill="#bbe0af" stroke="#bbe0af" stroke-width="1.51"/><path d="M156,49L156,59L166,59Z" fill="#bee4b0" stroke="#bee4b0" stroke-width="1.51"/><path d="M166,59L156,59L166,69Z" fill="#b3dfa7" stroke="#b3dfa7" stroke-width="1.51"/><path d="M156,59L156,69L166,69Z" fill="#b5e0a3" stroke="#b5e0a3" stroke-width="1.51"/><path d="M166,69L156,69L166,79Z" fill="#a5d9a1" stroke="#a5d9a1" stroke-width="1.51"/><path d="M156,69L156,79L166,79Z" fill="#a2d8a2" stroke="#a2d8a2" stroke-width="1.51"/><path d="M156,99L166,99L166,89Z" fill="#6bc4a5" stroke="#6bc4a5" stroke-width="1.51"/><path d="M156,89L156,99L166,89Z" fill="#7ac9a5" stroke="#7ac9a5" stroke-width="1.51"/><path d="M166,79L156,79L166,89Z" fill="#8ed0a5" stroke="#8ed0a5" stroke-width="1.51"/><path d="M156,79L156,89L166,89Z" fill="#8acfa5" stroke="#8acfa5" stroke-width="1.51"/><path d="M166,109L156,109L166,119Z" fill="#5ca1af" stroke="#5ca1af" stroke-width="1.51"/><path d="M156,109L156,119L166,119Z" fill="#689dad" stroke="#689dad" stroke-width="1.51"/><path d="M166,29L156,29L166,39Z" fill="#c0c68d" stroke="#c0c68d" stroke-width="1.51"/><path d="M156,29L156,39L166,39Z" fill="#c3ce92" stroke="#c3ce92" stroke-width="1.51"/><path d="M156,49L166,49L166,39Z" fill="#bdd9a3" stroke="#bdd9a3" stroke-width="1.51"/><path d="M156,39L156,49L166,39Z" fill="#c2d89d" stroke="#c2d89d" stroke-width="1.51"/><path d="M156,-11L146,-11L156,-1Z" fill="#b58875" stroke="#b58875" stroke-width="1.51"/><path d="M146,-11L146,-1L156,-1Z" fill="#bf8f77" stroke="#bf8f77" stroke-width="1.51"/><path d="M156,-1L146,-1L156,9Z" fill="#c59777" stroke="#c59777" stroke-width="1.51"/><path d="M146,-1L146,9L156,9Z" fill="#cc9d75" stroke="#cc9d75" stroke-width="1.51"/><path d="M156,9L146,9L156,19Z" fill="#cfa574" stroke="#cfa574" stroke-width="1.51"/><path d="M146,9L146,19L156,19Z" fill="#d3ad77" stroke="#d3ad77" stroke-width="1.51"/><path d="M156,19L146,19L156,29Z" fill="#ceb97f" stroke="#ceb97f" stroke-width="1.51"/><path d="M146,19L146,29L156,29Z" fill="#d2c282" stroke="#d2c282" stroke-width="1.51"/><path d="M156,29L146,29L156,39Z" fill="#cccc8d" stroke="#cccc8d" stroke-width="1.51"/><path d="M146,29L146,39L156,39Z" fill="#cfd391" stroke="#cfd391" stroke-width="1.51"/><path d="M156,39L146,39L156,49Z" fill="#cadb9d" stroke="#cadb9d" stroke-width="1.51"/><path d="M146,39L146,49L156,49Z" fill="#cee0a2" stroke="#cee0a2" stroke-width="1.51"/><path d="M156,49L146,49L156,59Z" fill="#c8e6af" stroke="#c8e6af" stroke-width="1.51"/><path d="M146,49L146,59L156,59Z" fill="#cbe9af" stroke="#cbe9af" stroke-width="1.51"/><path d="M156,59L146,59L156,69Z" fill="#c0e4a7" stroke="#c0e4a7" stroke-width="1.51"/><path d="M146,59L146,69L156,69Z" fill="#c2e5a2" stroke="#c2e5a2" stroke-width="1.51"/><path d="M156,69L146,69L156,79Z" fill="#b2dfa1" stroke="#b2dfa1" stroke-width="1.51"/><path d="M146,69L146,79L156,79Z" fill="#b0dea2" stroke="#b0dea2" stroke-width="1.51"/><path d="M156,79L146,79L156,89Z" fill="#9cd6a5" stroke="#9cd6a5" stroke-width="1.51"/><path d="M146,79L146,89L156,89Z" fill="#99d5a4" stroke="#99d5a4" stroke-width="1.51"/><path d="M156,89L146,89L156,99Z" fill="#84cca5" stroke="#84cca5" stroke-width="1.51"/><path d="M146,89L146,99L156,99Z" fill="#81cba5" stroke="#81cba5" stroke-width="1.51"/><path d="M156,99L146,99L156,109Z" fill="#74bbab" stroke="#74bbab" stroke-width="1.51"/><path d="M146,99L146,109L156,109Z" fill="#75b6ae" stroke="#75b6ae" stroke-width="1.51"/><path d="M156,109L146,109L156,119Z" fill="#6da6b0" stroke="#6da6b0" stroke-width="1.51"/><path d="M146,109L146,119L156,119Z" fill="#78a2ac" stroke="#78a2ac" stroke-width="1.51"/><path d="M146,-11L136,-11L146,-1Z" fill="#c08d75" stroke="#c08d75" stroke-width="1.51"/><path d="M136,-11L136,-1L146,-1Z" fill="#ca9476" stroke="#ca9476" stroke-width="1.51"/><path d="M146,-1L136,-1L146,9Z" fill="#d09c76" stroke="#d09c76" stroke-width="1.51"/><path d="M136,-1L136,9L146,9Z" fill="#d7a274" stroke="#d7a274" stroke-width="1.51"/><path d="M146,9L136,9L146,19Z" fill="#daaa73" stroke="#daaa73" stroke-width="1.51"/><path d="M136,9L136,19L146,19Z" fill="#deb376" stroke="#deb376" stroke-width="1.51"/><path d="M146,19L136,19L146,29Z" fill="#dabf7e" stroke="#dabf7e" stroke-width="1.51"/><path d="M136,19L136,29L146,29Z" fill="#ddc881" stroke="#ddc881" stroke-width="1.51"/><path d="M146,29L136,29L146,39Z" fill="#d8d18c" stroke="#d8d18c" stroke-width="1.51"/><path d="M136,29L136,39L146,39Z" fill="#dbd991" stroke="#dbd991" stroke-width="1.51"/><path d="M146,39L136,39L146,49Z" fill="#d6e19c" stroke="#d6e19c" stroke-width="1.51"/><path d="M136,39L136,49L146,49Z" fill="#dae6a2" stroke="#dae6a2" stroke-width="1.51"/><path d="M146,49L136,49L146,59Z" fill="#d5ecae" stroke="#d5ecae" stroke-width="1.51"/><path d="M136,49L136,59L146,59Z" fill="#d7efae" stroke="#d7efae" stroke-width="1.51"/><path d="M146,59L136,59L146,69Z" fill="#cdeba6" stroke="#cdeba6" stroke-width="1.51"/><path d="M136,59L136,69L146,69Z" fill="#cfeba1" stroke="#cfeba1" stroke-width="1.51"/><path d="M146,69L136,69L146,79Z" fill="#bfe5a0" stroke="#bfe5a0" stroke-width="1.51"/><path d="M136,69L136,79L146,79Z" fill="#bde4a1" stroke="#bde4a1" stroke-width="1.51"/><path d="M136,99L146,99L146,89Z" fill="#8bcfa5" stroke="#8bcfa5" stroke-width="1.51"/><path d="M136,89L136,99L146,89Z" fill="#97d4a4" stroke="#97d4a4" stroke-width="1.51"/><path d="M146,79L136,79L146,89Z" fill="#aadca4" stroke="#aadca4" stroke-width="1.51"/><path d="M136,79L136,89L146,89Z" fill="#a6dba4" stroke="#a6dba4" stroke-width="1.51"/><path d="M146,99L136,99L146,109Z" fill="#83c1ab" stroke="#83c1ab" stroke-width="1.51"/><path d="M136,99L136,109L146,109Z" fill="#85bcae" stroke="#85bcae" stroke-width="1.51"/><path d="M146,109L136,109L146,119Z" fill="#7dacb0" stroke="#7dacb0" stroke-width="1.51"/><path d="M136,109L136,119L146,119Z" fill="#86a7ac" stroke="#86a7ac" stroke-width="1.51"/><path d="M136,-11L126,-11L136,-1Z" fill="#cb9273" stroke="#cb9273" stroke-width="1.51"/><path d="M126,-11L126,-1L136,-1Z" fill="#d59874" stroke="#d59874" stroke-width="1.51"/><path d="M136,-1L126,-1L136,9Z" fill="#dba174" stroke="#dba174" stroke-width="1.51"/><path d="M126,-1L126,9L136,9Z" fill="#e2a772" stroke="#e2a772" stroke-width="1.51"/><path d="M136,9L126,9L136,19Z" fill="#e5af70" stroke="#e5af70" stroke-width="1.51"/><path d="M126,9L126,19L136,19Z" fill="#e9b773" stroke="#e9b773" stroke-width="1.51"/><path d="M136,19L126,19L136,29Z" fill="#e5c47c" stroke="#e5c47c" stroke-width="1.51"/><path d="M126,19L126,29L136,29Z" fill="#e9cc7f" stroke="#e9cc7f" stroke-width="1.51"/><path d="M126,109L136,109L136,99Z" fill="#8fbfac" stroke="#8fbfac" stroke-width="1.51"/><path d="M126,99L126,109L136,99Z" fill="#97c8a9" stroke="#97c8a9" stroke-width="1.51"/><path d="M136,49L126,49L136,59Z" fill="#e2f1ac" stroke="#e2f1ac" stroke-width="1.51"/><path d="M126,49L126,59L136,59Z" fill="#e4f4ac" stroke="#e4f4ac" stroke-width="1.51"/><path d="M136,59L126,59L136,69Z" fill="#daf0a3" stroke="#daf0a3" stroke-width="1.51"/><path d="M126,59L126,69L136,69Z" fill="#dbf19f" stroke="#dbf19f" stroke-width="1.51"/><path d="M136,69L126,69L136,79Z" fill="#ccea9e" stroke="#ccea9e" stroke-width="1.51"/><path d="M126,69L126,79L136,79Z" fill="#cae99f" stroke="#cae99f" stroke-width="1.51"/><path d="M126,99L136,99L136,89Z" fill="#9ad5a2" stroke="#9ad5a2" stroke-width="1.51"/><path d="M126,89L126,99L136,89Z" fill="#a5d9a2" stroke="#a5d9a2" stroke-width="1.51"/><path d="M136,79L126,79L136,89Z" fill="#b7e1a2" stroke="#b7e1a2" stroke-width="1.51"/><path d="M126,79L126,89L136,89Z" fill="#b4e0a1" stroke="#b4e0a1" stroke-width="1.51"/><path d="M136,109L126,109L136,119Z" fill="#8db1ae" stroke="#8db1ae" stroke-width="1.51"/><path d="M126,109L126,119L136,119Z" fill="#95acab" stroke="#95acab" stroke-width="1.51"/><path d="M136,29L126,29L136,39Z" fill="#e4d789" stroke="#e4d789" stroke-width="1.51"/><path d="M126,29L126,39L136,39Z" fill="#e7de8e" stroke="#e7de8e" stroke-width="1.51"/><path d="M126,49L136,49L136,39Z" fill="#e2eaa0" stroke="#e2eaa0" stroke-width="1.51"/><path d="M126,39L126,49L136,39Z" fill="#e6e899" stroke="#e6e899" stroke-width="1.51"/><path d="M126,-11L116,-11L126,-1Z" fill="#d59671" stroke="#d59671" stroke-width="1.51"/><path d="M116,-11L116,-1L126,-1Z" fill="#e09d71" stroke="#e09d71" stroke-width="1.51"/><path d="M126,-1L116,-1L126,9Z" fill="#e6a571" stroke="#e6a571" stroke-width="1.51"/><path d="M116,-1L116,9L126,9Z" fill="#edab6f" stroke="#edab6f" stroke-width="1.51"/><path d="M126,9L116,9L126,19Z" fill="#f0b36e" stroke="#f0b36e" stroke-width="1.51"/><path d="M116,9L116,19L126,19Z" fill="#f4bc70" stroke="#f4bc70" stroke-width="1.51"/><path d="M126,19L116,19L126,29Z" fill="#f0c979" stroke="#f0c979" stroke-width="1.51"/><path d="M116,19L116,29L126,29Z" fill="#f4d27c" stroke="#f4d27c" stroke-width="1.51"/><path d="M126,29L116,29L126,39Z" fill="#efdb87" stroke="#efdb87" stroke-width="1.51"/><path d="M116,29L116,39L126,39Z" fill="#f3e38b" stroke="#f3e38b" stroke-width="1.51"/><path d="M126,39L116,39L126,49Z" fill="#efeb97" stroke="#efeb97" stroke-width="1.51"/><path d="M116,39L116,49L126,49Z" fill="#f2f19c" stroke="#f2f19c" stroke-width="1.51"/><path d="M126,49L116,49L126,59Z" fill="#eef6a9" stroke="#eef6a9" stroke-width="1.51"/><path d="M116,49L116,59L126,59Z" fill="#f1faa9" stroke="#f1faa9" stroke-width="1.51"/><path d="M126,59L116,59L126,69Z" fill="#e7f5a1" stroke="#e7f5a1" stroke-width="1.51"/><path d="M116,59L116,69L126,69Z" fill="#e8f69c" stroke="#e8f69c" stroke-width="1.51"/><path d="M126,69L116,69L126,79Z" fill="#d9f09b" stroke="#d9f09b" stroke-width="1.51"/><path d="M116,69L116,79L126,79Z" fill="#d6ee9c" stroke="#d6ee9c" stroke-width="1.51"/><path d="M126,79L116,79L126,89Z" fill="#c4e69f" stroke="#c4e69f" stroke-width="1.51"/><path d="M116,79L116,89L126,89Z" fill="#c1e59e" stroke="#c1e59e" stroke-width="1.51"/><path d="M126,89L116,89L126,99Z" fill="#afdda0" stroke="#afdda0" stroke-width="1.51"/><path d="M116,89L116,99L126,99Z" fill="#acdc9f" stroke="#acdc9f" stroke-width="1.51"/><path d="M126,99L116,99L126,109Z" fill="#a1cba7" stroke="#a1cba7" stroke-width="1.51"/><path d="M116,99L116,109L126,109Z" fill="#a2c6a9" stroke="#a2c6a9" stroke-width="1.51"/><path d="M126,109L116,109L126,119Z" fill="#9bb6ac" stroke="#9bb6ac" stroke-width="1.51"/><path d="M116,109L116,119L126,119Z" fill="#a2b1a8" stroke="#a2b1a8" stroke-width="1.51"/><path d="M116,-11L106,-11L116,-1Z" fill="#dd9975" stroke="#dd9975" stroke-width="1.51"/><path d="M106,-11L106,-1L116,-1Z" fill="#e69e79" stroke="#e69e79" stroke-width="1.51"/><path d="M116,-1L106,-1L116,9Z" fill="#eda876" stroke="#eda876" stroke-width="1.51"/><path d="M106,-1L106,9L116,9Z" fill="#f2ad76" stroke="#f2ad76" stroke-width="1.51"/><path d="M116,9L106,9L116,19Z" fill="#f7b672" stroke="#f7b672" stroke-width="1.51"/><path d="M106,9L106,19L116,19Z" fill="#f9be78" stroke="#f9be78" stroke-width="1.51"/><path d="M116,19L106,19L116,29Z" fill="#f8cc7d" stroke="#f8cc7d" stroke-width="1.51"/><path d="M106,19L106,29L116,29Z" fill="#fad384" stroke="#fad384" stroke-width="1.51"/><path d="M106,109L116,109L116,99Z" fill="#a5c8ae" stroke="#a5c8ae" stroke-width="1.51"/><path d="M106,99L106,109L116,99Z" fill="#abcfae" stroke="#abcfae" stroke-width="1.51"/><path d="M116,49L106,49L116,59Z" fill="#f6faae" stroke="#f6faae" stroke-width="1.51"/><path d="M106,49L106,59L116,59Z" fill="#f7fcb1" stroke="#f7fcb1" stroke-width="1.51"/><path d="M116,59L106,59L116,69Z" fill="#eff9a6" stroke="#eff9a6" stroke-width="1.51"/><path d="M106,59L106,69L116,69Z" fill="#eef8a4" stroke="#eef8a4" stroke-width="1.51"/><path d="M116,69L106,69L116,79Z" fill="#e1f39f" stroke="#e1f39f" stroke-width="1.51"/><path d="M106,69L106,79L116,79Z" fill="#dcf1a3" stroke="#dcf1a3" stroke-width="1.51"/><path d="M106,99L116,99L116,89Z" fill="#b0dda5" stroke="#b0dda5" stroke-width="1.51"/><path d="M106,89L106,99L116,89Z" fill="#b9e1a7" stroke="#b9e1a7" stroke-width="1.51"/><path d="M116,79L106,79L116,89Z" fill="#cceaa4" stroke="#cceaa4" stroke-width="1.51"/><path d="M106,79L106,89L116,89Z" fill="#c7e8a6" stroke="#c7e8a6" stroke-width="1.51"/><path d="M116,109L106,109L116,119Z" fill="#a3b9b0" stroke="#a3b9b0" stroke-width="1.51"/><path d="M106,109L106,119L116,119Z" fill="#a7b3b0" stroke="#a7b3b0" stroke-width="1.51"/><path d="M116,29L106,29L116,39Z" fill="#f7df8b" stroke="#f7df8b" stroke-width="1.51"/><path d="M106,29L106,39L116,39Z" fill="#f9e593" stroke="#f9e593" stroke-width="1.51"/><path d="M106,49L116,49L116,39Z" fill="#f6f2a1" stroke="#f6f2a1" stroke-width="1.51"/><path d="M106,39L106,49L116,39Z" fill="#f8ef9e" stroke="#f8ef9e" stroke-width="1.51"/><path d="M106,-1L96,-1L106,9Z" fill="#f2a97e" stroke="#f2a97e" stroke-width="1.51"/><path d="M96,-1L96,9L106,9Z" fill="#f7af7f" stroke="#f7af7f" stroke-width="1.51"/><path d="M106,9L96,9L106,19Z" fill="#fdb87a" stroke="#fdb87a" stroke-width="1.51"/><path d="M96,9L96,19L106,19Z" fill="#ffc080" stroke="#ffc080" stroke-width="1.51"/><path d="M106,19L96,19L106,29Z" fill="#fdcd86" stroke="#fdcd86" stroke-width="1.51"/><path d="M96,19L96,29L106,29Z" fill="#ffd68c" stroke="#ffd68c" stroke-width="1.51"/><path d="M106,29L96,29L106,39Z" fill="#fde194" stroke="#fde194" stroke-width="1.51"/><path d="M96,29L96,39L106,39Z" fill="#fee79b" stroke="#fee79b" stroke-width="1.51"/><path d="M106,39L96,39L106,49Z" fill="#fcf1a4" stroke="#fcf1a4" stroke-width="1.51"/><path d="M96,39L96,49L106,49Z" fill="#fdf5ac" stroke="#fdf5ac" stroke-width="1.51"/><path d="M106,49L96,49L106,59Z" fill="#fcfcb7" stroke="#fcfcb7" stroke-width="1.51"/><path d="M96,49L96,59L106,59Z" fill="#fcfeba" stroke="#fcfeba" stroke-width="1.51"/><path d="M106,59L96,59L106,69Z" fill="#f4fbae" stroke="#f4fbae" stroke-width="1.51"/><path d="M96,59L96,69L106,69Z" fill="#f3fbac" stroke="#f3fbac" stroke-width="1.51"/><path d="M106,69L96,69L106,79Z" fill="#e6f5a8" stroke="#e6f5a8" stroke-width="1.51"/><path d="M96,69L96,79L106,79Z" fill="#e1f3ac" stroke="#e1f3ac" stroke-width="1.51"/><path d="M106,79L96,79L106,89Z" fill="#d2ecac" stroke="#d2ecac" stroke-width="1.51"/><path d="M96,79L96,89L106,89Z" fill="#cceaae" stroke="#cceaae" stroke-width="1.51"/><path d="M106,89L96,89L106,99Z" fill="#bce3ad" stroke="#bce3ad" stroke-width="1.51"/><path d="M96,89L96,99L106,99Z" fill="#b6e1af" stroke="#b6e1af" stroke-width="1.51"/><path d="M96,119L106,119L106,109Z" fill="#aab4b5" stroke="#aab4b5" stroke-width="1.51"/><path d="M96,109L96,119L106,109Z" fill="#a8bcbb" stroke="#a8bcbb" stroke-width="1.51"/><path d="M106,99L96,99L106,109Z" fill="#aed1b4" stroke="#aed1b4" stroke-width="1.51"/><path d="M96,99L96,109L106,109Z" fill="#abcbb9" stroke="#abcbb9" stroke-width="1.51"/><path d="M96,-1L106,-1L106,-11Z" fill="#e99f7e" stroke="#e99f7e" stroke-width="1.51"/><path d="M96,-11L96,-1L106,-11Z" fill="#e39b7f" stroke="#e39b7f" stroke-width="1.51"/><path d="M86,119L96,119L96,109Z" fill="#aeb3b7" stroke="#aeb3b7" stroke-width="1.51"/><path d="M86,109L86,119L96,109Z" fill="#abb8b6" stroke="#abb8b6" stroke-width="1.51"/><path d="M86,109L96,109L96,99Z" fill="#aec9b8" stroke="#aec9b8" stroke-width="1.51"/><path d="M86,99L86,109L96,99Z" fill="#b2ceb2" stroke="#b2ceb2" stroke-width="1.51"/><path d="M86,99L96,99L96,89Z" fill="#b9dfae" stroke="#b9dfae" stroke-width="1.51"/><path d="M86,89L86,99L96,89Z" fill="#c0e0ab" stroke="#c0e0ab" stroke-width="1.51"/><path d="M86,89L96,89L96,79Z" fill="#cee8ad" stroke="#cee8ad" stroke-width="1.51"/><path d="M86,79L86,89L96,79Z" fill="#d5e9aa" stroke="#d5e9aa" stroke-width="1.51"/><path d="M86,79L96,79L96,69Z" fill="#e3f1ab" stroke="#e3f1ab" stroke-width="1.51"/><path d="M86,69L86,79L96,69Z" fill="#eaf2a6" stroke="#eaf2a6" stroke-width="1.51"/><path d="M86,69L96,69L96,59Z" fill="#f5f9ab" stroke="#f5f9ab" stroke-width="1.51"/><path d="M86,59L86,69L96,59Z" fill="#f8f8ac" stroke="#f8f8ac" stroke-width="1.51"/><path d="M86,59L96,59L96,49Z" fill="#fefcb8" stroke="#fefcb8" stroke-width="1.51"/><path d="M86,49L86,59L96,49Z" fill="#fff8b4" stroke="#fff8b4" stroke-width="1.51"/><path d="M86,49L96,49L96,39Z" fill="#fff3ab" stroke="#fff3ab" stroke-width="1.51"/><path d="M86,39L86,49L96,39Z" fill="#ffeda2" stroke="#ffeda2" stroke-width="1.51"/><path d="M86,39L96,39L96,29Z" fill="#ffe59a" stroke="#ffe59a" stroke-width="1.51"/><path d="M86,29L86,39L96,29Z" fill="#ffdd92" stroke="#ffdd92" stroke-width="1.51"/><path d="M86,29L96,29L96,19Z" fill="#ffd48b" stroke="#ffd48b" stroke-width="1.51"/><path d="M86,19L86,29L96,19Z" fill="#ffca84" stroke="#ffca84" stroke-width="1.51"/><path d="M86,19L96,19L96,9Z" fill="#ffbe80" stroke="#ffbe80" stroke-width="1.51"/><path d="M86,9L86,19L96,9Z" fill="#ffb578" stroke="#ffb578" stroke-width="1.51"/><path d="M86,9L96,9L96,-1Z" fill="#f9ad7e" stroke="#f9ad7e" stroke-width="1.51"/><path d="M86,-1L86,9L96,-1Z" fill="#f5a67c" stroke="#f5a67c" stroke-width="1.51"/><path d="M86,-1L96,-1L96,-11Z" fill="#ec9e80" stroke="#ec9e80" stroke-width="1.51"/><path d="M86,-11L86,-1L96,-11Z" fill="#e4977b" stroke="#e4977b" stroke-width="1.51"/><path d="M86,89L76,89L86,99Z" fill="#c1dba3" stroke="#c1dba3" stroke-width="1.51"/><path d="M76,89L76,99L86,99Z" fill="#bbd6a0" stroke="#bbd6a0" stroke-width="1.51"/><path d="M86,-11L76,-11L86,-1Z" fill="#e39374" stroke="#e39374" stroke-width="1.51"/><path d="M76,-11L76,-1L86,-1Z" fill="#ea9572" stroke="#ea9572" stroke-width="1.51"/><path d="M86,-1L76,-1L86,9Z" fill="#f4a275" stroke="#f4a275" stroke-width="1.51"/><path d="M76,-1L76,9L86,9Z" fill="#f7a46f" stroke="#f7a46f" stroke-width="1.51"/><path d="M86,9L76,9L86,19Z" fill="#feb071" stroke="#feb071" stroke-width="1.51"/><path d="M76,9L76,19L86,19Z" fill="#feb571" stroke="#feb571" stroke-width="1.51"/><path d="M86,19L76,19L86,29Z" fill="#ffc67c" stroke="#ffc67c" stroke-width="1.51"/><path d="M76,19L76,29L86,29Z" fill="#ffcb7c" stroke="#ffcb7c" stroke-width="1.51"/><path d="M86,29L76,29L86,39Z" fill="#ffd98a" stroke="#ffd98a" stroke-width="1.51"/><path d="M76,29L76,39L86,39Z" fill="#ffdc8b" stroke="#ffdc8b" stroke-width="1.51"/><path d="M86,39L76,39L86,49Z" fill="#ffe99a" stroke="#ffe99a" stroke-width="1.51"/><path d="M76,39L76,49L86,49Z" fill="#ffea9c" stroke="#ffea9c" stroke-width="1.51"/><path d="M86,49L76,49L86,59Z" fill="#fff4ad" stroke="#fff4ad" stroke-width="1.51"/><path d="M76,49L76,59L86,59Z" fill="#fef3a9" stroke="#fef3a9" stroke-width="1.51"/><path d="M86,59L76,59L86,69Z" fill="#f8f3a4" stroke="#f8f3a4" stroke-width="1.51"/><path d="M76,59L76,69L86,69Z" fill="#f5f09c" stroke="#f5f09c" stroke-width="1.51"/><path d="M76,89L86,89L86,79Z" fill="#cfe2a3" stroke="#cfe2a3" stroke-width="1.51"/><path d="M76,79L76,89L86,79Z" fill="#d6e29f" stroke="#d6e29f" stroke-width="1.51"/><path d="M86,69L76,69L86,79Z" fill="#eaee9e" stroke="#eaee9e" stroke-width="1.51"/><path d="M76,69L76,79L86,79Z" fill="#e4e89c" stroke="#e4e89c" stroke-width="1.51"/><path d="M86,99L76,99L86,109Z" fill="#b3caaa" stroke="#b3caaa" stroke-width="1.51"/><path d="M76,99L76,109L86,109Z" fill="#b1c0a9" stroke="#b1c0a9" stroke-width="1.51"/><path d="M86,109L76,109L86,119Z" fill="#adb4af" stroke="#adb4af" stroke-width="1.51"/><path d="M76,109L76,119L86,119Z" fill="#b0aaa9" stroke="#b0aaa9" stroke-width="1.51"/><path d="M76,-11L66,-11L76,-1Z" fill="#e28c69" stroke="#e28c69" stroke-width="1.51"/><path d="M66,-11L66,-1L76,-1Z" fill="#e88d68" stroke="#e88d68" stroke-width="1.51"/><path d="M76,-1L66,-1L76,9Z" fill="#f29a6a" stroke="#f29a6a" stroke-width="1.51"/><path d="M66,-1L66,9L76,9Z" fill="#f59c65" stroke="#f59c65" stroke-width="1.51"/><path d="M76,9L66,9L76,19Z" fill="#fca966" stroke="#fca966" stroke-width="1.51"/><path d="M66,9L66,19L76,19Z" fill="#fdad67" stroke="#fdad67" stroke-width="1.51"/><path d="M66,99L76,99L76,89Z" fill="#bcd298" stroke="#bcd298" stroke-width="1.51"/><path d="M66,89L66,99L76,89Z" fill="#c3d195" stroke="#c3d195" stroke-width="1.51"/><path d="M76,39L66,39L76,49Z" fill="#ffe28f" stroke="#ffe28f" stroke-width="1.51"/><path d="M66,39L66,49L76,49Z" fill="#ffe292" stroke="#ffe292" stroke-width="1.51"/><path d="M76,49L66,49L76,59Z" fill="#ffeda1" stroke="#ffeda1" stroke-width="1.51"/><path d="M66,49L66,59L76,59Z" fill="#feeb9f" stroke="#feeb9f" stroke-width="1.51"/><path d="M76,59L66,59L76,69Z" fill="#f8ec99" stroke="#f8ec99" stroke-width="1.51"/><path d="M66,59L66,69L76,69Z" fill="#f5e891" stroke="#f5e891" stroke-width="1.51"/><path d="M66,89L76,89L76,79Z" fill="#d0db97" stroke="#d0db97" stroke-width="1.51"/><path d="M66,79L66,89L76,79Z" fill="#d7db94" stroke="#d7db94" stroke-width="1.51"/><path d="M76,69L66,69L76,79Z" fill="#eae793" stroke="#eae793" stroke-width="1.51"/><path d="M66,69L66,79L76,79Z" fill="#e4e092" stroke="#e4e092" stroke-width="1.51"/><path d="M76,99L66,99L76,109Z" fill="#b5c39f" stroke="#b5c39f" stroke-width="1.51"/><path d="M66,99L66,109L76,109Z" fill="#b2b89f" stroke="#b2b89f" stroke-width="1.51"/><path d="M66,119L76,119L76,109Z" fill="#b0a6a1" stroke="#b0a6a1" stroke-width="1.51"/><path d="M66,109L66,119L76,109Z" fill="#afaaa1" stroke="#afaaa1" stroke-width="1.51"/><path d="M76,19L66,19L76,29Z" fill="#febf71" stroke="#febf71" stroke-width="1.51"/><path d="M66,19L66,29L76,29Z" fill="#fec372" stroke="#fec372" stroke-width="1.51"/><path d="M66,39L76,39L76,29Z" fill="#fed884" stroke="#fed884" stroke-width="1.51"/><path d="M66,29L66,39L76,29Z" fill="#fecf7c" stroke="#fecf7c" stroke-width="1.51"/><path d="M66,-11L56,-11L66,-1Z" fill="#e08161" stroke="#e08161" stroke-width="1.51"/><path d="M56,-11L56,-1L66,-1Z" fill="#e78160" stroke="#e78160" stroke-width="1.51"/><path d="M66,-1L56,-1L66,9Z" fill="#f18f61" stroke="#f18f61" stroke-width="1.51"/><path d="M56,-1L56,9L66,9Z" fill="#f4905d" stroke="#f4905d" stroke-width="1.51"/><path d="M66,9L56,9L66,19Z" fill="#fb9e5d" stroke="#fb9e5d" stroke-width="1.51"/><path d="M56,9L56,19L66,19Z" fill="#fca15e" stroke="#fca15e" stroke-width="1.51"/><path d="M66,19L56,19L66,29Z" fill="#fdb468" stroke="#fdb468" stroke-width="1.51"/><path d="M56,19L56,29L66,29Z" fill="#feb869" stroke="#feb869" stroke-width="1.51"/><path d="M66,29L56,29L66,39Z" fill="#fec876" stroke="#fec876" stroke-width="1.51"/><path d="M56,29L56,39L66,39Z" fill="#feca78" stroke="#feca78" stroke-width="1.51"/><path d="M66,39L56,39L66,49Z" fill="#ffd886" stroke="#ffd886" stroke-width="1.51"/><path d="M56,39L56,49L66,49Z" fill="#ffd789" stroke="#ffd789" stroke-width="1.51"/><path d="M66,49L56,49L66,59Z" fill="#ffe298" stroke="#ffe298" stroke-width="1.51"/><path d="M56,49L56,59L66,59Z" fill="#ffe096" stroke="#ffe096" stroke-width="1.51"/><path d="M66,59L56,59L66,69Z" fill="#f8e290" stroke="#f8e290" stroke-width="1.51"/><path d="M56,59L56,69L66,69Z" fill="#f6dd88" stroke="#f6dd88" stroke-width="1.51"/><path d="M66,69L56,69L66,79Z" fill="#ebdc8a" stroke="#ebdc8a" stroke-width="1.51"/><path d="M56,69L56,79L66,79Z" fill="#e5d688" stroke="#e5d688" stroke-width="1.51"/><path d="M66,79L56,79L66,89Z" fill="#d8d48e" stroke="#d8d48e" stroke-width="1.51"/><path d="M56,79L56,89L66,89Z" fill="#d2cd8b" stroke="#d2cd8b" stroke-width="1.51"/><path d="M66,89L56,89L66,99Z" fill="#c4cb8f" stroke="#c4cb8f" stroke-width="1.51"/><path d="M56,89L56,99L66,99Z" fill="#bfc48c" stroke="#bfc48c" stroke-width="1.51"/><path d="M56,119L66,119L66,109Z" fill="#b29c99" stroke="#b29c99" stroke-width="1.51"/><path d="M56,109L56,119L66,109Z" fill="#b19f98" stroke="#b19f98" stroke-width="1.51"/><path d="M66,99L56,99L66,109Z" fill="#b7b996" stroke="#b7b996" stroke-width="1.51"/><path d="M56,99L56,109L66,109Z" fill="#b4ae96" stroke="#b4ae96" stroke-width="1.51"/><path d="M56,-11L46,-11L56,-1Z" fill="#df7559" stroke="#df7559" stroke-width="1.51"/><path d="M46,-11L46,-1L56,-1Z" fill="#e67557" stroke="#e67557" stroke-width="1.51"/><path d="M56,-1L46,-1L56,9Z" fill="#ef8459" stroke="#ef8459" stroke-width="1.51"/><path d="M46,-1L46,9L56,9Z" fill="#f28454" stroke="#f28454" stroke-width="1.51"/><path d="M56,9L46,9L56,19Z" fill="#f99355" stroke="#f99355" stroke-width="1.51"/><path d="M46,9L46,19L56,19Z" fill="#fa9655" stroke="#fa9655" stroke-width="1.51"/><path d="M46,99L56,99L56,89Z" fill="#c0bd86" stroke="#c0bd86" stroke-width="1.51"/><path d="M46,89L46,99L56,89Z" fill="#c7bc83" stroke="#c7bc83" stroke-width="1.51"/><path d="M56,39L46,39L56,49Z" fill="#ffcd7d" stroke="#ffcd7d" stroke-width="1.51"/><path d="M46,39L46,49L56,49Z" fill="#ffcc80" stroke="#ffcc80" stroke-width="1.51"/><path d="M56,49L46,49L56,59Z" fill="#ffd88f" stroke="#ffd88f" stroke-width="1.51"/><path d="M46,49L46,59L56,59Z" fill="#ffd58c" stroke="#ffd58c" stroke-width="1.51"/><path d="M56,59L46,59L56,69Z" fill="#f9d787" stroke="#f9d787" stroke-width="1.51"/><path d="M46,59L46,69L56,69Z" fill="#f7d27f" stroke="#f7d27f" stroke-width="1.51"/><path d="M46,89L56,89L56,79Z" fill="#d3c685" stroke="#d3c685" stroke-width="1.51"/><path d="M46,79L46,89L56,79Z" fill="#dac582" stroke="#dac582" stroke-width="1.51"/><path d="M56,69L46,69L56,79Z" fill="#ecd281" stroke="#ecd281" stroke-width="1.51"/><path d="M46,69L46,79L56,79Z" fill="#e7cb7f" stroke="#e7cb7f" stroke-width="1.51"/><path d="M46,119L56,119L56,109Z" fill="#b39190" stroke="#b39190" stroke-width="1.51"/><path d="M46,109L46,119L56,109Z" fill="#b3958f" stroke="#b3958f" stroke-width="1.51"/><path d="M56,99L46,99L56,109Z" fill="#b9af8d" stroke="#b9af8d" stroke-width="1.51"/><path d="M46,99L46,109L56,109Z" fill="#b6a48d" stroke="#b6a48d" stroke-width="1.51"/><path d="M56,19L46,19L56,29Z" fill="#fca95f" stroke="#fca95f" stroke-width="1.51"/><path d="M46,19L46,29L56,29Z" fill="#fdad60" stroke="#fdad60" stroke-width="1.51"/><path d="M46,39L56,39L56,29Z" fill="#fec372" stroke="#fec372" stroke-width="1.51"/><path d="M46,29L46,39L56,29Z" fill="#feb96a" stroke="#feb96a" stroke-width="1.51"/><path d="M46,-11L36,-11L46,-1Z" fill="#dd6751" stroke="#dd6751" stroke-width="1.51"/><path d="M36,-11L36,-1L46,-1Z" fill="#e36751" stroke="#e36751" stroke-width="1.51"/><path d="M46,-1L36,-1L46,9Z" fill="#ee7652" stroke="#ee7652" stroke-width="1.51"/><path d="M36,-1L36,9L46,9Z" fill="#f0764e" stroke="#f0764e" stroke-width="1.51"/><path d="M46,9L36,9L46,19Z" fill="#f8854d" stroke="#f8854d" stroke-width="1.51"/><path d="M36,9L36,19L46,19Z" fill="#f9884f" stroke="#f9884f" stroke-width="1.51"/><path d="M46,19L36,19L46,29Z" fill="#fb9c58" stroke="#fb9c58" stroke-width="1.51"/><path d="M36,19L36,29L46,29Z" fill="#fc9f59" stroke="#fc9f59" stroke-width="1.51"/><path d="M46,29L36,29L46,39Z" fill="#fdb065" stroke="#fdb065" stroke-width="1.51"/><path d="M36,29L36,39L46,39Z" fill="#fdb268" stroke="#fdb268" stroke-width="1.51"/><path d="M46,39L36,39L46,49Z" fill="#ffc075" stroke="#ffc075" stroke-width="1.51"/><path d="M36,39L36,49L46,49Z" fill="#ffbf79" stroke="#ffbf79" stroke-width="1.51"/><path d="M46,49L36,49L46,59Z" fill="#ffcb87" stroke="#ffcb87" stroke-width="1.51"/><path d="M36,49L36,59L46,59Z" fill="#ffc885" stroke="#ffc885" stroke-width="1.51"/><path d="M46,59L36,59L46,69Z" fill="#f9ca7f" stroke="#f9ca7f" stroke-width="1.51"/><path d="M36,59L36,69L46,69Z" fill="#f7c578" stroke="#f7c578" stroke-width="1.51"/><path d="M46,69L36,69L46,79Z" fill="#ecc579" stroke="#ecc579" stroke-width="1.51"/><path d="M36,69L36,79L46,79Z" fill="#e7be78" stroke="#e7be78" stroke-width="1.51"/><path d="M46,79L36,79L46,89Z" fill="#dabd7d" stroke="#dabd7d" stroke-width="1.51"/><path d="M36,79L36,89L46,89Z" fill="#d4b67b" stroke="#d4b67b" stroke-width="1.51"/><path d="M46,89L36,89L46,99Z" fill="#c7b47e" stroke="#c7b47e" stroke-width="1.51"/><path d="M36,89L36,99L46,99Z" fill="#c2ad7c" stroke="#c2ad7c" stroke-width="1.51"/><path d="M36,119L46,119L46,109Z" fill="#b48588" stroke="#b48588" stroke-width="1.51"/><path d="M36,109L36,119L46,109Z" fill="#b38988" stroke="#b38988" stroke-width="1.51"/><path d="M46,99L36,99L46,109Z" fill="#baa385" stroke="#baa385" stroke-width="1.51"/><path d="M36,99L36,109L46,109Z" fill="#b79886" stroke="#b79886" stroke-width="1.51"/><path d="M36,-11L26,-11L36,-1Z" fill="#db574b" stroke="#db574b" stroke-width="1.51"/><path d="M26,-11L26,-1L36,-1Z" fill="#e1574a" stroke="#e1574a" stroke-width="1.51"/><path d="M36,-1L26,-1L36,9Z" fill="#eb674b" stroke="#eb674b" stroke-width="1.51"/><path d="M26,-1L26,9L36,9Z" fill="#ee6748" stroke="#ee6748" stroke-width="1.51"/><path d="M36,9L26,9L36,19Z" fill="#f67747" stroke="#f67747" stroke-width="1.51"/><path d="M26,9L26,19L36,19Z" fill="#f67a48" stroke="#f67a48" stroke-width="1.51"/><path d="M36,19L26,19L36,29Z" fill="#f98e51" stroke="#f98e51" stroke-width="1.51"/><path d="M26,19L26,29L36,29Z" fill="#fa9153" stroke="#fa9153" stroke-width="1.51"/><path d="M36,29L26,29L36,39Z" fill="#fca25f" stroke="#fca25f" stroke-width="1.51"/><path d="M26,29L26,39L36,39Z" fill="#fca461" stroke="#fca461" stroke-width="1.51"/><path d="M36,39L26,39L36,49Z" fill="#feb36e" stroke="#feb36e" stroke-width="1.51"/><path d="M26,39L26,49L36,49Z" fill="#feb272" stroke="#feb272" stroke-width="1.51"/><path d="M36,49L26,49L36,59Z" fill="#ffbe80" stroke="#ffbe80" stroke-width="1.51"/><path d="M26,49L26,59L36,59Z" fill="#ffbb7e" stroke="#ffbb7e" stroke-width="1.51"/><path d="M36,59L26,59L36,69Z" fill="#f9bd78" stroke="#f9bd78" stroke-width="1.51"/><path d="M26,59L26,69L36,69Z" fill="#f6b871" stroke="#f6b871" stroke-width="1.51"/><path d="M36,69L26,69L36,79Z" fill="#ecb972" stroke="#ecb972" stroke-width="1.51"/><path d="M26,69L26,79L36,79Z" fill="#e6b171" stroke="#e6b171" stroke-width="1.51"/><path d="M36,79L26,79L36,89Z" fill="#dbb076" stroke="#dbb076" stroke-width="1.51"/><path d="M26,79L26,89L36,89Z" fill="#d4a974" stroke="#d4a974" stroke-width="1.51"/><path d="M36,89L26,89L36,99Z" fill="#c8a877" stroke="#c8a877" stroke-width="1.51"/><path d="M26,89L26,99L36,99Z" fill="#c2a175" stroke="#c2a175" stroke-width="1.51"/><path d="M36,99L26,99L36,109Z" fill="#bb967e" stroke="#bb967e" stroke-width="1.51"/><path d="M26,99L26,109L36,109Z" fill="#b78b7f" stroke="#b78b7f" stroke-width="1.51"/><path d="M36,109L26,109L36,119Z" fill="#b38083" stroke="#b38083" stroke-width="1.51"/><path d="M26,109L26,119L36,119Z" fill="#b4747e" stroke="#b4747e" stroke-width="1.51"/><path d="M26,-11L16,-11L26,-1Z" fill="#d64a49" stroke="#d64a49" stroke-width="1.51"/><path d="M16,-11L16,-1L26,-1Z" fill="#db4b4b" stroke="#db4b4b" stroke-width="1.51"/><path d="M26,-1L16,-1L26,9Z" fill="#e75a49" stroke="#e75a49" stroke-width="1.51"/><path d="M16,-1L16,9L26,9Z" fill="#e85c49" stroke="#e85c49" stroke-width="1.51"/><path d="M26,9L16,9L26,19Z" fill="#f16a45" stroke="#f16a45" stroke-width="1.51"/><path d="M16,9L16,19L26,19Z" fill="#f16f4a" stroke="#f16f4a" stroke-width="1.51"/><path d="M26,19L16,19L26,29Z" fill="#f5834f" stroke="#f5834f" stroke-width="1.51"/><path d="M16,19L16,29L26,29Z" fill="#f48754" stroke="#f48754" stroke-width="1.51"/><path d="M26,29L16,29L26,39Z" fill="#f8975c" stroke="#f8975c" stroke-width="1.51"/><path d="M16,29L16,39L26,39Z" fill="#f79a62" stroke="#f79a62" stroke-width="1.51"/><path d="M26,39L16,39L26,49Z" fill="#faa76c" stroke="#faa76c" stroke-width="1.51"/><path d="M16,39L16,49L26,49Z" fill="#f9a872" stroke="#f9a872" stroke-width="1.51"/><path d="M26,49L16,49L26,59Z" fill="#fdb37d" stroke="#fdb37d" stroke-width="1.51"/><path d="M16,49L16,59L26,59Z" fill="#fab17f" stroke="#fab17f" stroke-width="1.51"/><path d="M26,59L16,59L26,69Z" fill="#f6b275" stroke="#f6b275" stroke-width="1.51"/><path d="M16,59L16,69L26,69Z" fill="#f1ae72" stroke="#f1ae72" stroke-width="1.51"/><path d="M26,69L16,69L26,79Z" fill="#e9ae6f" stroke="#e9ae6f" stroke-width="1.51"/><path d="M16,69L16,79L26,79Z" fill="#e2a872" stroke="#e2a872" stroke-width="1.51"/><path d="M16,99L26,99L26,89Z" fill="#bf9b74" stroke="#bf9b74" stroke-width="1.51"/><path d="M16,89L16,99L26,89Z" fill="#c39a75" stroke="#c39a75" stroke-width="1.51"/><path d="M26,79L16,79L26,89Z" fill="#d7a673" stroke="#d7a673" stroke-width="1.51"/><path d="M16,79L16,89L26,89Z" fill="#cfa074" stroke="#cfa074" stroke-width="1.51"/><path d="M26,99L16,99L26,109Z" fill="#b88c7b" stroke="#b88c7b" stroke-width="1.51"/><path d="M16,99L16,109L26,109Z" fill="#b2827f" stroke="#b2827f" stroke-width="1.51"/><path d="M26,109L16,109L26,119Z" fill="#b07580" stroke="#b07580" stroke-width="1.51"/><path d="M16,109L16,119L26,119Z" fill="#af6b7e" stroke="#af6b7e" stroke-width="1.51"/><path d="M16,-11L6,-11L16,-1Z" fill="#cf3f4b" stroke="#cf3f4b" stroke-width="1.51"/><path d="M6,-11L6,-1L16,-1Z" fill="#d4404d" stroke="#d4404d" stroke-width="1.51"/><path d="M16,-1L6,-1L16,9Z" fill="#e0504c" stroke="#e0504c" stroke-width="1.51"/><path d="M6,-1L6,9L16,9Z" fill="#e1524b" stroke="#e1524b" stroke-width="1.51"/><path d="M16,9L6,9L16,19Z" fill="#eb6048" stroke="#eb6048" stroke-width="1.51"/><path d="M6,9L6,19L16,19Z" fill="#ea664c" stroke="#ea664c" stroke-width="1.51"/><path d="M16,19L6,19L16,29Z" fill="#ef7952" stroke="#ef7952" stroke-width="1.51"/><path d="M6,19L6,29L16,29Z" fill="#ee7e57" stroke="#ee7e57" stroke-width="1.51"/><path d="M6,109L16,109L16,99Z" fill="#ae7c7f" stroke="#ae7c7f" stroke-width="1.51"/><path d="M6,99L6,109L16,99Z" fill="#af817e" stroke="#af817e" stroke-width="1.51"/><path d="M16,49L6,49L16,59Z" fill="#f6aa80" stroke="#f6aa80" stroke-width="1.51"/><path d="M6,49L6,59L16,59Z" fill="#f3a881" stroke="#f3a881" stroke-width="1.51"/><path d="M16,59L6,59L16,69Z" fill="#efa977" stroke="#efa977" stroke-width="1.51"/><path d="M6,59L6,69L16,69Z" fill="#eaa674" stroke="#eaa674" stroke-width="1.51"/><path d="M16,69L6,69L16,79Z" fill="#e3a572" stroke="#e3a572" stroke-width="1.51"/><path d="M6,69L6,79L16,79Z" fill="#db9f74" stroke="#db9f74" stroke-width="1.51"/><path d="M6,99L16,99L16,89Z" fill="#b99276" stroke="#b99276" stroke-width="1.51"/><path d="M6,89L6,99L16,89Z" fill="#bc9277" stroke="#bc9277" stroke-width="1.51"/><path d="M16,79L6,79L16,89Z" fill="#d19d76" stroke="#d19d76" stroke-width="1.51"/><path d="M6,79L6,89L16,89Z" fill="#c89877" stroke="#c89877" stroke-width="1.51"/><path d="M16,109L6,109L16,119Z" fill="#a96d81" stroke="#a96d81" stroke-width="1.51"/><path d="M6,109L6,119L16,119Z" fill="#a7637f" stroke="#a7637f" stroke-width="1.51"/><path d="M16,29L6,29L16,39Z" fill="#f28e5f" stroke="#f28e5f" stroke-width="1.51"/><path d="M6,29L6,39L16,39Z" fill="#f09165" stroke="#f09165" stroke-width="1.51"/><path d="M6,49L16,49L16,39Z" fill="#f5a274" stroke="#f5a274" stroke-width="1.51"/><path d="M6,39L6,49L16,39Z" fill="#f29c6f" stroke="#f29c6f" stroke-width="1.51"/><path d="M6,-11L-4,-11L6,-1Z" fill="#c8334c" stroke="#c8334c" stroke-width="1.51"/><path d="M-4,-11L-4,-1L6,-1Z" fill="#cb364c" stroke="#cb364c" stroke-width="1.51"/><path d="M6,-1L-4,-1L6,9Z" fill="#d9454d" stroke="#d9454d" stroke-width="1.51"/><path d="M-4,-1L-4,9L6,9Z" fill="#d8484b" stroke="#d8484b" stroke-width="1.51"/><path d="M6,9L-4,9L6,19Z" fill="#e3564a" stroke="#e3564a" stroke-width="1.51"/><path d="M-4,9L-4,19L6,19Z" fill="#e15c4c" stroke="#e15c4c" stroke-width="1.51"/><path d="M6,19L-4,19L6,29Z" fill="#e77054" stroke="#e77054" stroke-width="1.51"/><path d="M-4,19L-4,29L6,29Z" fill="#e57657" stroke="#e57657" stroke-width="1.51"/><path d="M6,29L-4,29L6,39Z" fill="#ea8561" stroke="#ea8561" stroke-width="1.51"/><path d="M-4,29L-4,39L6,39Z" fill="#e78965" stroke="#e78965" stroke-width="1.51"/><path d="M6,39L-4,39L6,49Z" fill="#ed9670" stroke="#ed9670" stroke-width="1.51"/><path d="M-4,39L-4,49L6,49Z" fill="#e99774" stroke="#e99774" stroke-width="1.51"/><path d="M6,49L-4,49L6,59Z" fill="#efa181" stroke="#efa181" stroke-width="1.51"/><path d="M-4,49L-4,59L6,59Z" fill="#eaa080" stroke="#eaa080" stroke-width="1.51"/><path d="M6,59L-4,59L6,69Z" fill="#e8a179" stroke="#e8a179" stroke-width="1.51"/><path d="M-4,59L-4,69L6,69Z" fill="#e19d74" stroke="#e19d74" stroke-width="1.51"/><path d="M6,69L-4,69L6,79Z" fill="#dc9c73" stroke="#dc9c73" stroke-width="1.51"/><path d="M-4,69L-4,79L6,79Z" fill="#d29774" stroke="#d29774" stroke-width="1.51"/><path d="M6,79L-4,79L6,89Z" fill="#ca9477" stroke="#ca9477" stroke-width="1.51"/><path d="M-4,79L-4,89L6,89Z" fill="#c08f76" stroke="#c08f76" stroke-width="1.51"/><path d="M6,89L-4,89L6,99Z" fill="#b88c78" stroke="#b88c78" stroke-width="1.51"/><path d="M-4,89L-4,99L6,99Z" fill="#ae8777" stroke="#ae8777" stroke-width="1.51"/><path d="M6,99L-4,99L6,109Z" fill="#aa7b7e" stroke="#aa7b7e" stroke-width="1.51"/><path d="M-4,99L-4,109L6,109Z" fill="#a2717f" stroke="#a2717f" stroke-width="1.51"/><path d="M6,109L-4,109L6,119Z" fill="#a26582" stroke="#a26582" stroke-width="1.51"/><path d="M-4,109L-4,119L6,119Z" fill="#9e5b7e" stroke="#9e5b7e" stroke-width="1.51"/><path d="M-4,-11L-14,-11L-4,-1Z" fill="#bc294a" stroke="#bc294a" stroke-width="1.51"/><path d="M-14,-11L-14,-1L-4,-1Z" fill="#bf2b4a" stroke="#bf2b4a" stroke-width="1.51"/><path d="M-4,-1L-14,-1L-4,9Z" fill="#cc3b4b" stroke="#cc3b4b" stroke-width="1.51"/><path d="M-14,-1L-14,9L-4,9Z" fill="#cc3e48" stroke="#cc3e48" stroke-width="1.51"/><path d="M-4,9L-14,9L-4,19Z" fill="#d74d48" stroke="#d74d48" stroke-width="1.51"/><path d="M-14,9L-14,19L-4,19Z" fill="#d5534a" stroke="#d5534a" stroke-width="1.51"/><path d="M-4,19L-14,19L-4,29Z" fill="#db6752" stroke="#db6752" stroke-width="1.51"/><path d="M-14,19L-14,29L-4,29Z" fill="#d96c54" stroke="#d96c54" stroke-width="1.51"/><path d="M-4,29L-14,29L-4,39Z" fill="#de7c5f" stroke="#de7c5f" stroke-width="1.51"/><path d="M-14,29L-14,39L-4,39Z" fill="#db8062" stroke="#db8062" stroke-width="1.51"/><path d="M-4,59L-14,59L-4,69Z" fill="#dc9877" stroke="#dc9877" stroke-width="1.51"/><path d="M-14,59L-14,69L-4,69Z" fill="#d59471" stroke="#d59471" stroke-width="1.51"/><path d="M-4,69L-14,69L-4,79Z" fill="#d09371" stroke="#d09371" stroke-width="1.51"/><path d="M-14,69L-14,79L-4,79Z" fill="#c68e71" stroke="#c68e71" stroke-width="1.51"/><path d="M-4,79L-14,79L-4,89Z" fill="#be8c74" stroke="#be8c74" stroke-width="1.51"/><path d="M-14,79L-14,89L-4,89Z" fill="#b48673" stroke="#b48673" stroke-width="1.51"/><path d="M-14,109L-4,109L-4,99Z" fill="#9a6c7d" stroke="#9a6c7d" stroke-width="1.51"/><path d="M-14,99L-14,109L-4,99Z" fill="#9a707a" stroke="#9a707a" stroke-width="1.51"/><path d="M-4,89L-14,89L-4,99Z" fill="#ac8475" stroke="#ac8475" stroke-width="1.51"/><path d="M-14,89L-14,99L-4,99Z" fill="#a27e74" stroke="#a27e74" stroke-width="1.51"/><path d="M-4,109L-14,109L-4,119Z" fill="#955d7f" stroke="#955d7f" stroke-width="1.51"/><path d="M-14,109L-14,119L-4,119Z" fill="#92527b" stroke="#92527b" stroke-width="1.51"/><path d="M-4,39L-14,39L-4,49Z" fill="#e18d6d" stroke="#e18d6d" stroke-width="1.51"/><path d="M-14,39L-14,49L-4,49Z" fill="#dd8d72" stroke="#dd8d72" stroke-width="1.51"/><path d="M-14,59L-4,59L-4,49Z" fill="#e2997f" stroke="#e2997f" stroke-width="1.51"/><path d="M-14,49L-14,59L-4,49Z" fill="#df957d" stroke="#df957d" stroke-width="1.51"/></svg>