<svg xmlns="http://www.w3.org/2000/svg" width="1920" height="1080"><path d="M2085,-148L1960,-148L2085,-23Z" fill="#8c8899" stroke="#8c8899" stroke-width="1.51"/><path d="M1960,-148L1960,-23L2085,-23Z" fill="#8e899a" stroke="#8e899a" stroke-width="1.51"/><path d="M2085,-23L1960,-23L2085,102Z" fill="#868591" stroke="#868591" stroke-width="1.51"/><path d="M1960,-23L1960,102L2085,102Z" fill="#848596" stroke="#848596" stroke-width="1.51"/><path d="M2085,102L1960,102L2085,227Z" fill="#798192" stroke="#798192" stroke-width="1.51"/><path d="M1960,102L1960,227L2085,227Z" fill="#768197" stroke="#768197" stroke-width="1.51"/><path d="M2085,227L1960,227L2085,352Z" fill="#637993" stroke="#637993" stroke-width="1.51"/><path d="M1960,227L1960,352L2085,352Z" fill="#5e7998" stroke="#5e7998" stroke-width="1.51"/><path d="M2085,352L1960,352L2085,477Z" fill="#4c7295" stroke="#4c7295" stroke-width="1.51"/><path d="M1960,352L1960,477L2085,477Z" fill="#49729a" stroke="#49729a" stroke-width="1.51"/><path d="M2085,477L1960,477L2085,602Z" fill="#376c97" stroke="#376c97" stroke-width="1.51"/><path d="M1960,477L1960,602L2085,602Z" fill="#346a9c" stroke="#346a9c" stroke-width="1.51"/><path d="M2085,602L1960,602L2085,727Z" fill="#2a6196" stroke="#2a6196" stroke-width="1.51"/><path d="M1960,602L1960,727L2085,727Z" fill="#285f9b" stroke="#285f9b" stroke-width="1.51"/><path d="M1960,977L2085,977L2085,852Z" fill="#1c3e88" stroke="#1c3e88" stroke-width="1.51"/><path d="M1960,852L1960,977L2085,852Z" fill="#1f4690" stroke="#1f4690" stroke-width="1.51"/><path d="M2085,727L1960,727L2085,852Z" fill="#205493" stroke="#205493" stroke-width="1.51"/><path d="M1960,727L1960,852L2085,852Z" fill="#215095" stroke="#215095" stroke-width="1.51"/><path d="M2085,977L1960,977L2085,1102Z" fill="#1c3684" stroke="#1c3684" stroke-width="1.51"/><path d="M1960,977L1960,1102L2085,1102Z" fill="#1e3387" stroke="#1e3387" stroke-width="1.51"/><path d="M2085,1102L1960,1102L2085,1227Z" fill="#192a79" stroke="#192a79" stroke-width="1.51"/><path d="M1960,1102L1960,1227L2085,1227Z" fill="#172977" stroke="#172977" stroke-width="1.51"/><path d="M1960,-148L1835,-148L1960,-23Z" fill="#958ea7" stroke="#958ea7" stroke-width="1.51"/><path d="M1835,-148L1835,-23L1960,-23Z" fill="#9790a8" stroke="#9790a8" stroke-width="1.51"/><path d="M1960,-23L1835,-23L1960,102Z" fill="#8e8c9f" stroke="#8e8c9f" stroke-width="1.51"/><path d="M1835,-23L1835,102L1960,102Z" fill="#8c8ca4" stroke="#8c8ca4" stroke-width="1.51"/><path d="M1835,977L1960,977L1960,852Z" fill="#224496" stroke="#224496" stroke-width="1.51"/><path d="M1835,852L1835,977L1960,852Z" fill="#254b9d" stroke="#254b9d" stroke-width="1.51"/><path d="M1960,352L1835,352L1960,477Z" fill="#5378a2" stroke="#5378a2" stroke-width="1.51"/><path d="M1835,352L1835,477L1960,477Z" fill="#5078a8" stroke="#5078a8" stroke-width="1.51"/><path d="M1960,477L1835,477L1960,602Z" fill="#3f72a5" stroke="#3f72a5" stroke-width="1.51"/><path d="M1835,477L1835,602L1960,602Z" fill="#3b71aa" stroke="#3b71aa" stroke-width="1.51"/><path d="M1835,852L1960,852L1960,727Z" fill="#26549d" stroke="#26549d" stroke-width="1.51"/><path d="M1835,727L1835,852L1960,727Z" fill="#295ca5" stroke="#295ca5" stroke-width="1.51"/><path d="M1960,602L1835,602L1960,727Z" fill="#3167a4" stroke="#3167a4" stroke-width="1.51"/><path d="M1835,602L1835,727L1960,727Z" fill="#2f65a8" stroke="#2f65a8" stroke-width="1.51"/><path d="M1960,977L1835,977L1960,1102Z" fill="#223b91" stroke="#223b91" stroke-width="1.51"/><path d="M1835,977L1835,1102L1960,1102Z" fill="#243894" stroke="#243894" stroke-width="1.51"/><path d="M1835,1227L1960,1227L1960,1102Z" fill="#1b2c7f" stroke="#1b2c7f" stroke-width="1.51"/><path d="M1835,1102L1835,1227L1960,1102Z" fill="#20308a" stroke="#20308a" stroke-width="1.51"/><path d="M1960,102L1835,102L1960,227Z" fill="#81879f" stroke="#81879f" stroke-width="1.51"/><path d="M1835,102L1835,227L1960,227Z" fill="#7e87a4" stroke="#7e87a4" stroke-width="1.51"/><path d="M1835,352L1960,352L1960,227Z" fill="#637da1" stroke="#637da1" stroke-width="1.51"/><path d="M1835,227L1835,352L1960,227Z" fill="#6e82a5" stroke="#6e82a5" stroke-width="1.51"/><path d="M1835,-148L1710,-148L1835,-23Z" fill="#9a96b0" stroke="#9a96b0" stroke-width="1.51"/><path d="M1710,-148L1710,-23L1835,-23Z" fill="#9998ad" stroke="#9998ad" stroke-width="1.51"/><path d="M1835,-23L1710,-23L1835,102Z" fill="#9393a8" stroke="#9393a8" stroke-width="1.51"/><path d="M1710,-23L1710,102L1835,102Z" fill="#8f94a9" stroke="#8f94a9" stroke-width="1.51"/><path d="M1710,352L1835,352L1835,227Z" fill="#6784ab" stroke="#6784ab" stroke-width="1.51"/><path d="M1710,227L1710,352L1835,227Z" fill="#6f8aab" stroke="#6f8aab" stroke-width="1.51"/><path d="M1835,102L1710,102L1835,227Z" fill="#868fa9" stroke="#868fa9" stroke-width="1.51"/><path d="M1710,102L1710,227L1835,227Z" fill="#8090aa" stroke="#8090aa" stroke-width="1.51"/><path d="M1835,352L1710,352L1835,477Z" fill="#5780ac" stroke="#5780ac" stroke-width="1.51"/><path d="M1710,352L1710,477L1835,477Z" fill="#5080ae" stroke="#5080ae" stroke-width="1.51"/><path d="M1835,477L1710,477L1835,602Z" fill="#4279ae" stroke="#4279ae" stroke-width="1.51"/><path d="M1710,477L1710,602L1835,602Z" fill="#3b79b0" stroke="#3b79b0" stroke-width="1.51"/><path d="M1835,602L1710,602L1835,727Z" fill="#346ead" stroke="#346ead" stroke-width="1.51"/><path d="M1710,602L1710,727L1835,727Z" fill="#2f6dae" stroke="#2f6dae" stroke-width="1.51"/><path d="M1835,727L1710,727L1835,852Z" fill="#2a61aa" stroke="#2a61aa" stroke-width="1.51"/><path d="M1710,727L1710,852L1835,852Z" fill="#285ea8" stroke="#285ea8" stroke-width="1.51"/><path d="M1835,852L1710,852L1835,977Z" fill="#2750a2" stroke="#2750a2" stroke-width="1.51"/><path d="M1710,852L1710,977L1835,977Z" fill="#254ea1" stroke="#254ea1" stroke-width="1.51"/><path d="M1710,1227L1835,1227L1835,1102Z" fill="#1f3388" stroke="#1f3388" stroke-width="1.51"/><path d="M1710,1102L1710,1227L1835,1102Z" fill="#233890" stroke="#233890" stroke-width="1.51"/><path d="M1835,977L1710,977L1835,1102Z" fill="#26429b" stroke="#26429b" stroke-width="1.51"/><path d="M1710,977L1710,1102L1835,1102Z" fill="#26409a" stroke="#26409a" stroke-width="1.51"/><path d="M1710,-148L1585,-148L1710,-23Z" fill="#9b9fb4" stroke="#9b9fb4" stroke-width="1.51"/><path d="M1585,-148L1585,-23L1710,-23Z" fill="#9aa2b1" stroke="#9aa2b1" stroke-width="1.51"/><path d="M1710,-23L1585,-23L1710,102Z" fill="#949dac" stroke="#949dac" stroke-width="1.51"/><path d="M1585,-23L1585,102L1710,102Z" fill="#8f9ead" stroke="#8f9ead" stroke-width="1.51"/><path d="M1710,102L1585,102L1710,227Z" fill="#8698ac" stroke="#8698ac" stroke-width="1.51"/><path d="M1585,102L1585,227L1710,227Z" fill="#8099ae" stroke="#8099ae" stroke-width="1.51"/><path d="M1585,477L1710,477L1710,352Z" fill="#4f87b0" stroke="#4f87b0" stroke-width="1.51"/><path d="M1585,352L1585,477L1710,352Z" fill="#558cb1" stroke="#558cb1" stroke-width="1.51"/><path d="M1710,227L1585,227L1710,352Z" fill="#6f90ae" stroke="#6f90ae" stroke-width="1.51"/><path d="M1585,227L1585,352L1710,352Z" fill="#6691b0" stroke="#6691b0" stroke-width="1.51"/><path d="M1710,477L1585,477L1710,602Z" fill="#3f82b2" stroke="#3f82b2" stroke-width="1.51"/><path d="M1585,477L1585,602L1710,602Z" fill="#3882b4" stroke="#3882b4" stroke-width="1.51"/><path d="M1710,602L1585,602L1710,727Z" fill="#3177b1" stroke="#3177b1" stroke-width="1.51"/><path d="M1585,602L1585,727L1710,727Z" fill="#2b76b2" stroke="#2b76b2" stroke-width="1.51"/><path d="M1710,727L1585,727L1710,852Z" fill="#276aae" stroke="#276aae" stroke-width="1.51"/><path d="M1585,727L1585,852L1710,852Z" fill="#2667ac" stroke="#2667ac" stroke-width="1.51"/><path d="M1585,1102L1710,1102L1710,977Z" fill="#26469d" stroke="#26469d" stroke-width="1.51"/><path d="M1585,977L1585,1102L1710,977Z" fill="#264ea0" stroke="#264ea0" stroke-width="1.51"/><path d="M1710,852L1585,852L1710,977Z" fill="#2559a6" stroke="#2559a6" stroke-width="1.51"/><path d="M1585,852L1585,977L1710,977Z" fill="#2457a4" stroke="#2457a4" stroke-width="1.51"/><path d="M1710,1102L1585,1102L1710,1227Z" fill="#233e93" stroke="#233e93" stroke-width="1.51"/><path d="M1585,1102L1585,1227L1710,1227Z" fill="#1f3f8e" stroke="#1f3f8e" stroke-width="1.51"/><path d="M1585,-148L1460,-148L1585,-23Z" fill="#9ba9b8" stroke="#9ba9b8" stroke-width="1.51"/><path d="M1460,-148L1460,-23L1585,-23Z" fill="#9badb5" stroke="#9badb5" stroke-width="1.51"/><path d="M1585,-23L1460,-23L1585,102Z" fill="#94a7b0" stroke="#94a7b0" stroke-width="1.51"/><path d="M1460,-23L1460,102L1585,102Z" fill="#90a9b1" stroke="#90a9b1" stroke-width="1.51"/><path d="M1585,102L1460,102L1585,227Z" fill="#86a2b1" stroke="#86a2b1" stroke-width="1.51"/><path d="M1460,102L1460,227L1585,227Z" fill="#80a4b2" stroke="#80a4b2" stroke-width="1.51"/><path d="M1585,227L1460,227L1585,352Z" fill="#6e9ab2" stroke="#6e9ab2" stroke-width="1.51"/><path d="M1460,227L1460,352L1585,352Z" fill="#659bb4" stroke="#659bb4" stroke-width="1.51"/><path d="M1585,352L1460,352L1585,477Z" fill="#5492b4" stroke="#5492b4" stroke-width="1.51"/><path d="M1460,352L1460,477L1585,477Z" fill="#4d94b6" stroke="#4d94b6" stroke-width="1.51"/><path d="M1585,477L1460,477L1585,602Z" fill="#3c8bb6" stroke="#3c8bb6" stroke-width="1.51"/><path d="M1460,477L1460,602L1585,602Z" fill="#358cb8" stroke="#358cb8" stroke-width="1.51"/><path d="M1585,602L1460,602L1585,727Z" fill="#2d80b6" stroke="#2d80b6" stroke-width="1.51"/><path d="M1460,602L1460,727L1585,727Z" fill="#2880b7" stroke="#2880b7" stroke-width="1.51"/><path d="M1585,727L1460,727L1585,852Z" fill="#2373b2" stroke="#2373b2" stroke-width="1.51"/><path d="M1460,727L1460,852L1585,852Z" fill="#2370b1" stroke="#2370b1" stroke-width="1.51"/><path d="M1585,852L1460,852L1585,977Z" fill="#2362aa" stroke="#2362aa" stroke-width="1.51"/><path d="M1460,852L1460,977L1585,977Z" fill="#2360a9" stroke="#2360a9" stroke-width="1.51"/><path d="M1585,977L1460,977L1585,1102Z" fill="#2554a3" stroke="#2554a3" stroke-width="1.51"/><path d="M1460,977L1460,1102L1585,1102Z" fill="#2753a3" stroke="#2753a3" stroke-width="1.51"/><path d="M1585,1102L1460,1102L1585,1227Z" fill="#234797" stroke="#234797" stroke-width="1.51"/><path d="M1460,1102L1460,1227L1585,1227Z" fill="#204892" stroke="#204892" stroke-width="1.51"/><path d="M1460,-148L1335,-148L1460,-23Z" fill="#9db5bd" stroke="#9db5bd" stroke-width="1.51"/><path d="M1335,-148L1335,-23L1460,-23Z" fill="#9db8ba" stroke="#9db8ba" stroke-width="1.51"/><path d="M1460,-23L1335,-23L1460,102Z" fill="#96b2b5" stroke="#96b2b5" stroke-width="1.51"/><path d="M1335,-23L1335,102L1460,102Z" fill="#92b4b6" stroke="#92b4b6" stroke-width="1.51"/><path d="M1460,102L1335,102L1460,227Z" fill="#87aeb5" stroke="#87aeb5" stroke-width="1.51"/><path d="M1335,102L1335,227L1460,227Z" fill="#82afb7" stroke="#82afb7" stroke-width="1.51"/><path d="M1460,227L1335,227L1460,352Z" fill="#6fa5b7" stroke="#6fa5b7" stroke-width="1.51"/><path d="M1335,227L1335,352L1460,352Z" fill="#66a6b9" stroke="#66a6b9" stroke-width="1.51"/><path d="M1460,352L1335,352L1460,477Z" fill="#549db9" stroke="#549db9" stroke-width="1.51"/><path d="M1335,352L1335,477L1460,477Z" fill="#4d9fbb" stroke="#4d9fbb" stroke-width="1.51"/><path d="M1460,477L1335,477L1460,602Z" fill="#3b96bb" stroke="#3b96bb" stroke-width="1.51"/><path d="M1335,477L1335,602L1460,602Z" fill="#3497bd" stroke="#3497bd" stroke-width="1.51"/><path d="M1460,602L1335,602L1460,727Z" fill="#2c8bbb" stroke="#2c8bbb" stroke-width="1.51"/><path d="M1335,602L1335,727L1460,727Z" fill="#268abc" stroke="#268abc" stroke-width="1.51"/><path d="M1335,977L1460,977L1460,852Z" fill="#2467ad" stroke="#2467ad" stroke-width="1.51"/><path d="M1335,852L1335,977L1460,852Z" fill="#2470b1" stroke="#2470b1" stroke-width="1.51"/><path d="M1460,727L1335,727L1460,852Z" fill="#227db7" stroke="#227db7" stroke-width="1.51"/><path d="M1335,727L1335,852L1460,852Z" fill="#237bb6" stroke="#237bb6" stroke-width="1.51"/><path d="M1460,977L1335,977L1460,1102Z" fill="#275ea8" stroke="#275ea8" stroke-width="1.51"/><path d="M1335,977L1335,1102L1460,1102Z" fill="#295da8" stroke="#295da8" stroke-width="1.51"/><path d="M1460,1102L1335,1102L1460,1227Z" fill="#26529c" stroke="#26529c" stroke-width="1.51"/><path d="M1335,1102L1335,1227L1460,1227Z" fill="#235297" stroke="#235297" stroke-width="1.51"/><path d="M1335,-148L1210,-148L1335,-23Z" fill="#9fc1c2" stroke="#9fc1c2" stroke-width="1.51"/><path d="M1210,-148L1210,-23L1335,-23Z" fill="#9ec4bf" stroke="#9ec4bf" stroke-width="1.51"/><path d="M1335,-23L1210,-23L1335,102Z" fill="#98beb9" stroke="#98beb9" stroke-width="1.51"/><path d="M1210,-23L1210,102L1335,102Z" fill="#93c0bb" stroke="#93c0bb" stroke-width="1.51"/><path d="M1335,102L1210,102L1335,227Z" fill="#89b9ba" stroke="#89b9ba" stroke-width="1.51"/><path d="M1210,102L1210,227L1335,227Z" fill="#83bbbc" stroke="#83bbbc" stroke-width="1.51"/><path d="M1210,1102L1335,1102L1335,977Z" fill="#2a64ab" stroke="#2a64ab" stroke-width="1.51"/><path d="M1210,977L1210,1102L1335,977Z" fill="#296caf" stroke="#296caf" stroke-width="1.51"/><path d="M1335,477L1210,477L1335,602Z" fill="#39a2c0" stroke="#39a2c0" stroke-width="1.51"/><path d="M1210,477L1210,602L1335,602Z" fill="#31a2c2" stroke="#31a2c2" stroke-width="1.51"/><path d="M1335,602L1210,602L1335,727Z" fill="#2996c0" stroke="#2996c0" stroke-width="1.51"/><path d="M1210,602L1210,727L1335,727Z" fill="#2395c1" stroke="#2395c1" stroke-width="1.51"/><path d="M1210,977L1335,977L1335,852Z" fill="#2472b2" stroke="#2472b2" stroke-width="1.51"/><path d="M1210,852L1210,977L1335,852Z" fill="#237bb6" stroke="#237bb6" stroke-width="1.51"/><path d="M1335,727L1210,727L1335,852Z" fill="#2088bc" stroke="#2088bc" stroke-width="1.51"/><path d="M1210,727L1210,852L1335,852Z" fill="#2186bb" stroke="#2186bb" stroke-width="1.51"/><path d="M1335,1102L1210,1102L1335,1227Z" fill="#285ca1" stroke="#285ca1" stroke-width="1.51"/><path d="M1210,1102L1210,1227L1335,1227Z" fill="#255d9c" stroke="#255d9c" stroke-width="1.51"/><path d="M1335,227L1210,227L1335,352Z" fill="#70b1bb" stroke="#70b1bb" stroke-width="1.51"/><path d="M1210,227L1210,352L1335,352Z" fill="#66b2be" stroke="#66b2be" stroke-width="1.51"/><path d="M1210,477L1335,477L1335,352Z" fill="#4ca6be" stroke="#4ca6be" stroke-width="1.51"/><path d="M1210,352L1210,477L1335,352Z" fill="#54acbf" stroke="#54acbf" stroke-width="1.51"/><path d="M1210,-148L1085,-148L1210,-23Z" fill="#a2cac3" stroke="#a2cac3" stroke-width="1.51"/><path d="M1085,-148L1085,-23L1210,-23Z" fill="#a2ccbf" stroke="#a2ccbf" stroke-width="1.51"/><path d="M1210,-23L1085,-23L1210,102Z" fill="#9bc7bb" stroke="#9bc7bb" stroke-width="1.51"/><path d="M1085,-23L1085,102L1210,102Z" fill="#97c8bb" stroke="#97c8bb" stroke-width="1.51"/><path d="M1210,102L1085,102L1210,227Z" fill="#8cc2bc" stroke="#8cc2bc" stroke-width="1.51"/><path d="M1085,102L1085,227L1210,227Z" fill="#87c3bc" stroke="#87c3bc" stroke-width="1.51"/><path d="M1210,227L1085,227L1210,352Z" fill="#72babd" stroke="#72babd" stroke-width="1.51"/><path d="M1085,227L1085,352L1210,352Z" fill="#6ababe" stroke="#6ababe" stroke-width="1.51"/><path d="M1210,352L1085,352L1210,477Z" fill="#57b2bf" stroke="#57b2bf" stroke-width="1.51"/><path d="M1085,352L1085,477L1210,477Z" fill="#51b2c1" stroke="#51b2c1" stroke-width="1.51"/><path d="M1210,477L1085,477L1210,602Z" fill="#3daac2" stroke="#3daac2" stroke-width="1.51"/><path d="M1085,477L1085,602L1210,602Z" fill="#38a9c3" stroke="#38a9c3" stroke-width="1.51"/><path d="M1210,602L1085,602L1210,727Z" fill="#2e9ec2" stroke="#2e9ec2" stroke-width="1.51"/><path d="M1085,602L1085,727L1210,727Z" fill="#2d9dc2" stroke="#2d9dc2" stroke-width="1.51"/><path d="M1210,727L1085,727L1210,852Z" fill="#2791be" stroke="#2791be" stroke-width="1.51"/><path d="M1085,727L1085,852L1210,852Z" fill="#2b8dbc" stroke="#2b8dbc" stroke-width="1.51"/><path d="M1210,852L1085,852L1210,977Z" fill="#2a80b6" stroke="#2a80b6" stroke-width="1.51"/><path d="M1085,852L1085,977L1210,977Z" fill="#2f7cb4" stroke="#2f7cb4" stroke-width="1.51"/><path d="M1210,977L1085,977L1210,1102Z" fill="#2f71af" stroke="#2f71af" stroke-width="1.51"/><path d="M1085,977L1085,1102L1210,1102Z" fill="#346fae" stroke="#346fae" stroke-width="1.51"/><path d="M1210,1102L1085,1102L1210,1227Z" fill="#2f64a3" stroke="#2f64a3" stroke-width="1.51"/><path d="M1085,1102L1085,1227L1210,1227Z" fill="#2d649d" stroke="#2d649d" stroke-width="1.51"/><path d="M1085,-148L960,-148L1085,-23Z" fill="#a6d2c4" stroke="#a6d2c4" stroke-width="1.51"/><path d="M960,-148L960,-23L1085,-23Z" fill="#a6d5c0" stroke="#a6d5c0" stroke-width="1.51"/><path d="M1085,-23L960,-23L1085,102Z" fill="#9ecfbc" stroke="#9ecfbc" stroke-width="1.51"/><path d="M960,-23L960,102L1085,102Z" fill="#9bd0bb" stroke="#9bd0bb" stroke-width="1.51"/><path d="M1085,102L960,102L1085,227Z" fill="#8fcabc" stroke="#8fcabc" stroke-width="1.51"/><path d="M960,102L960,227L1085,227Z" fill="#8acbbd" stroke="#8acbbd" stroke-width="1.51"/><path d="M1085,227L960,227L1085,352Z" fill="#76c2be" stroke="#76c2be" stroke-width="1.51"/><path d="M960,227L960,352L1085,352Z" fill="#6ec2bf" stroke="#6ec2bf" stroke-width="1.51"/><path d="M1085,602L960,602L1085,727Z" fill="#35a6c3" stroke="#35a6c3" stroke-width="1.51"/><path d="M960,602L960,727L1085,727Z" fill="#34a5c2" stroke="#34a5c2" stroke-width="1.51"/><path d="M1085,727L960,727L1085,852Z" fill="#2f98bf" stroke="#2f98bf" stroke-width="1.51"/><path d="M960,727L960,852L1085,852Z" fill="#3395bc" stroke="#3395bc" stroke-width="1.51"/><path d="M960,1102L1085,1102L1085,977Z" fill="#3973ae" stroke="#3973ae" stroke-width="1.51"/><path d="M960,977L960,1102L1085,977Z" fill="#3a7bb0" stroke="#3a7bb0" stroke-width="1.51"/><path d="M1085,852L960,852L1085,977Z" fill="#3287b7" stroke="#3287b7" stroke-width="1.51"/><path d="M960,852L960,977L1085,977Z" fill="#3684b5" stroke="#3684b5" stroke-width="1.51"/><path d="M1085,1102L960,1102L1085,1227Z" fill="#366ba5" stroke="#366ba5" stroke-width="1.51"/><path d="M960,1102L960,1227L1085,1227Z" fill="#356b9e" stroke="#356b9e" stroke-width="1.51"/><path d="M1085,352L960,352L1085,477Z" fill="#5bb9c0" stroke="#5bb9c0" stroke-width="1.51"/><path d="M960,352L960,477L1085,477Z" fill="#55bac1" stroke="#55bac1" stroke-width="1.51"/><path d="M960,602L1085,602L1085,477Z" fill="#3caec4" stroke="#3caec4" stroke-width="1.51"/><path d="M960,477L960,602L1085,477Z" fill="#44b5c3" stroke="#44b5c3" stroke-width="1.51"/><path d="M835,1227L960,1227L960,1102Z" fill="#3c6f9e" stroke="#3c6f9e" stroke-width="1.51"/><path d="M835,1102L835,1227L960,1102Z" fill="#4573a4" stroke="#4573a4" stroke-width="1.51"/><path d="M835,1102L960,1102L960,977Z" fill="#437aaf" stroke="#437aaf" stroke-width="1.51"/><path d="M835,977L835,1102L960,977Z" fill="#4780b0" stroke="#4780b0" stroke-width="1.51"/><path d="M835,977L960,977L960,852Z" fill="#3f88b5" stroke="#3f88b5" stroke-width="1.51"/><path d="M835,852L835,977L960,852Z" fill="#438fb7" stroke="#438fb7" stroke-width="1.51"/><path d="M835,852L960,852L960,727Z" fill="#3c99bc" stroke="#3c99bc" stroke-width="1.51"/><path d="M835,727L835,852L960,727Z" fill="#42a1bf" stroke="#42a1bf" stroke-width="1.51"/><path d="M835,727L960,727L960,602Z" fill="#3da9c2" stroke="#3da9c2" stroke-width="1.51"/><path d="M835,602L835,727L960,602Z" fill="#46aec2" stroke="#46aec2" stroke-width="1.51"/><path d="M835,602L960,602L960,477Z" fill="#46b5c4" stroke="#46b5c4" stroke-width="1.51"/><path d="M835,477L835,602L960,477Z" fill="#51bac3" stroke="#51bac3" stroke-width="1.51"/><path d="M835,477L960,477L960,352Z" fill="#5bbec1" stroke="#5bbec1" stroke-width="1.51"/><path d="M835,352L835,477L960,352Z" fill="#66c2c0" stroke="#66c2c0" stroke-width="1.51"/><path d="M835,352L960,352L960,227Z" fill="#73c6bf" stroke="#73c6bf" stroke-width="1.51"/><path d="M835,227L835,352L960,227Z" fill="#80cabd" stroke="#80cabd" stroke-width="1.51"/><path d="M835,227L960,227L960,102Z" fill="#8fcfbc" stroke="#8fcfbc" stroke-width="1.51"/><path d="M835,102L835,227L960,102Z" fill="#98d3bc" stroke="#98d3bc" stroke-width="1.51"/><path d="M835,102L960,102L960,-23Z" fill="#9fd5bb" stroke="#9fd5bb" stroke-width="1.51"/><path d="M835,-23L835,102L960,-23Z" fill="#a7d8bb" stroke="#a7d8bb" stroke-width="1.51"/><path d="M835,-23L960,-23L960,-148Z" fill="#aad9bf" stroke="#aad9bf" stroke-width="1.51"/><path d="M835,-148L835,-23L960,-148Z" fill="#afdbc3" stroke="#afdbc3" stroke-width="1.51"/><path d="M835,852L710,852L835,977Z" fill="#4d92b6" stroke="#4d92b6" stroke-width="1.51"/><path d="M710,852L710,977L835,977Z" fill="#528eb3" stroke="#528eb3" stroke-width="1.51"/><path d="M835,-148L710,-148L835,-23Z" fill="#b4dfc1" stroke="#b4dfc1" stroke-width="1.51"/><path d="M710,-148L710,-23L835,-23Z" fill="#b6e0bd" stroke="#b6e0bd" stroke-width="1.51"/><path d="M835,-23L710,-23L835,102Z" fill="#addcb9" stroke="#addcb9" stroke-width="1.51"/><path d="M710,-23L710,102L835,102Z" fill="#abdbb8" stroke="#abdbb8" stroke-width="1.51"/><path d="M835,102L710,102L835,227Z" fill="#9ed7ba" stroke="#9ed7ba" stroke-width="1.51"/><path d="M710,102L710,227L835,227Z" fill="#9bd6ba" stroke="#9bd6ba" stroke-width="1.51"/><path d="M835,227L710,227L835,352Z" fill="#87cebc" stroke="#87cebc" stroke-width="1.51"/><path d="M710,227L710,352L835,352Z" fill="#81ccbc" stroke="#81ccbc" stroke-width="1.51"/><path d="M835,352L710,352L835,477Z" fill="#6ec5be" stroke="#6ec5be" stroke-width="1.51"/><path d="M710,352L710,477L835,477Z" fill="#6cc4bf" stroke="#6cc4bf" stroke-width="1.51"/><path d="M835,477L710,477L835,602Z" fill="#5abec1" stroke="#5abec1" stroke-width="1.51"/><path d="M710,477L710,602L835,602Z" fill="#5abcc1" stroke="#5abcc1" stroke-width="1.51"/><path d="M710,852L835,852L835,727Z" fill="#4d9eba" stroke="#4d9eba" stroke-width="1.51"/><path d="M710,727L710,852L835,727Z" fill="#51a5bd" stroke="#51a5bd" stroke-width="1.51"/><path d="M835,602L710,602L835,727Z" fill="#51b2c1" stroke="#51b2c1" stroke-width="1.51"/><path d="M710,602L710,727L835,727Z" fill="#53afc0" stroke="#53afc0" stroke-width="1.51"/><path d="M835,977L710,977L835,1102Z" fill="#5083af" stroke="#5083af" stroke-width="1.51"/><path d="M710,977L710,1102L835,1102Z" fill="#5580ac" stroke="#5580ac" stroke-width="1.51"/><path d="M835,1102L710,1102L835,1227Z" fill="#4e76a3" stroke="#4e76a3" stroke-width="1.51"/><path d="M710,1102L710,1227L835,1227Z" fill="#4e749c" stroke="#4e749c" stroke-width="1.51"/><path d="M710,-148L585,-148L710,-23Z" fill="#bde4bf" stroke="#bde4bf" stroke-width="1.51"/><path d="M585,-148L585,-23L710,-23Z" fill="#c0e5ba" stroke="#c0e5ba" stroke-width="1.51"/><path d="M710,-23L585,-23L710,102Z" fill="#b5e1b7" stroke="#b5e1b7" stroke-width="1.51"/><path d="M585,-23L585,102L710,102Z" fill="#b5e0b6" stroke="#b5e0b6" stroke-width="1.51"/><path d="M585,977L710,977L710,852Z" fill="#5b91b2" stroke="#5b91b2" stroke-width="1.51"/><path d="M585,852L585,977L710,852Z" fill="#6198b4" stroke="#6198b4" stroke-width="1.51"/><path d="M710,352L585,352L710,477Z" fill="#79cabc" stroke="#79cabc" stroke-width="1.51"/><path d="M585,352L585,477L710,477Z" fill="#79c9bd" stroke="#79c9bd" stroke-width="1.51"/><path d="M710,477L585,477L710,602Z" fill="#67c3bf" stroke="#67c3bf" stroke-width="1.51"/><path d="M585,477L585,602L710,602Z" fill="#69c1bf" stroke="#69c1bf" stroke-width="1.51"/><path d="M585,852L710,852L710,727Z" fill="#5aa2b9" stroke="#5aa2b9" stroke-width="1.51"/><path d="M585,727L585,852L710,727Z" fill="#61aabb" stroke="#61aabb" stroke-width="1.51"/><path d="M710,602L585,602L710,727Z" fill="#5fb7bf" stroke="#5fb7bf" stroke-width="1.51"/><path d="M585,602L585,727L710,727Z" fill="#63b4be" stroke="#63b4be" stroke-width="1.51"/><path d="M710,977L585,977L710,1102Z" fill="#5c88ad" stroke="#5c88ad" stroke-width="1.51"/><path d="M585,977L585,1102L710,1102Z" fill="#6284ab" stroke="#6284ab" stroke-width="1.51"/><path d="M585,1227L710,1227L710,1102Z" fill="#55779b" stroke="#55779b" stroke-width="1.51"/><path d="M585,1102L585,1227L710,1102Z" fill="#5f7ca1" stroke="#5f7ca1" stroke-width="1.51"/><path d="M710,102L585,102L710,227Z" fill="#a7dcb8" stroke="#a7dcb8" stroke-width="1.51"/><path d="M585,102L585,227L710,227Z" fill="#a6dbb8" stroke="#a6dbb8" stroke-width="1.51"/><path d="M585,352L710,352L710,227Z" fill="#88d0bb" stroke="#88d0bb" stroke-width="1.51"/><path d="M585,227L585,352L710,227Z" fill="#95d4b9" stroke="#95d4b9" stroke-width="1.51"/><path d="M585,-148L460,-148L585,-23Z" fill="#cbeabe" stroke="#cbeabe" stroke-width="1.51"/><path d="M460,-148L460,-23L585,-23Z" fill="#cdebb9" stroke="#cdebb9" stroke-width="1.51"/><path d="M585,-23L460,-23L585,102Z" fill="#c3e6b5" stroke="#c3e6b5" stroke-width="1.51"/><path d="M460,-23L460,102L585,102Z" fill="#c3e6b5" stroke="#c3e6b5" stroke-width="1.51"/><path d="M585,102L460,102L585,227Z" fill="#b5e1b6" stroke="#b5e1b6" stroke-width="1.51"/><path d="M460,102L460,227L585,227Z" fill="#b4e1b6" stroke="#b4e1b6" stroke-width="1.51"/><path d="M585,227L460,227L585,352Z" fill="#a0d9b8" stroke="#a0d9b8" stroke-width="1.51"/><path d="M460,227L460,352L585,352Z" fill="#9dd7b9" stroke="#9dd7b9" stroke-width="1.51"/><path d="M585,352L460,352L585,477Z" fill="#8ad0bb" stroke="#8ad0bb" stroke-width="1.51"/><path d="M460,352L460,477L585,477Z" fill="#8bcfbb" stroke="#8bcfbb" stroke-width="1.51"/><path d="M585,477L460,477L585,602Z" fill="#7ac8be" stroke="#7ac8be" stroke-width="1.51"/><path d="M460,477L460,602L585,602Z" fill="#7cc7be" stroke="#7cc7be" stroke-width="1.51"/><path d="M585,602L460,602L585,727Z" fill="#72bcbe" stroke="#72bcbe" stroke-width="1.51"/><path d="M460,602L460,727L585,727Z" fill="#76babd" stroke="#76babd" stroke-width="1.51"/><path d="M585,727L460,727L585,852Z" fill="#6eaeba" stroke="#6eaeba" stroke-width="1.51"/><path d="M460,727L460,852L585,852Z" fill="#73a9b7" stroke="#73a9b7" stroke-width="1.51"/><path d="M585,852L460,852L585,977Z" fill="#6d9cb3" stroke="#6d9cb3" stroke-width="1.51"/><path d="M460,852L460,977L585,977Z" fill="#7298b0" stroke="#7298b0" stroke-width="1.51"/><path d="M460,1227L585,1227L585,1102Z" fill="#667c9a" stroke="#667c9a" stroke-width="1.51"/><path d="M460,1102L460,1227L585,1102Z" fill="#6f81a0" stroke="#6f81a0" stroke-width="1.51"/><path d="M585,977L460,977L585,1102Z" fill="#6d8cac" stroke="#6d8cac" stroke-width="1.51"/><path d="M460,977L460,1102L585,1102Z" fill="#7389aa" stroke="#7389aa" stroke-width="1.51"/><path d="M460,-148L335,-148L460,-23Z" fill="#d8f0bc" stroke="#d8f0bc" stroke-width="1.51"/><path d="M335,-148L335,-23L460,-23Z" fill="#dbf1b7" stroke="#dbf1b7" stroke-width="1.51"/><path d="M460,-23L335,-23L460,102Z" fill="#d0ecb4" stroke="#d0ecb4" stroke-width="1.51"/><path d="M335,-23L335,102L460,102Z" fill="#d1ecb3" stroke="#d1ecb3" stroke-width="1.51"/><path d="M460,102L335,102L460,227Z" fill="#c3e7b5" stroke="#c3e7b5" stroke-width="1.51"/><path d="M335,102L335,227L460,227Z" fill="#c3e7b5" stroke="#c3e7b5" stroke-width="1.51"/><path d="M460,477L335,477L460,602Z" fill="#8bcebc" stroke="#8bcebc" stroke-width="1.51"/><path d="M335,477L335,602L460,602Z" fill="#8dcdbd" stroke="#8dcdbd" stroke-width="1.51"/><path d="M460,602L335,602L460,727Z" fill="#84c2bc" stroke="#84c2bc" stroke-width="1.51"/><path d="M335,602L335,727L460,727Z" fill="#88bfbc" stroke="#88bfbc" stroke-width="1.51"/><path d="M335,977L460,977L460,852Z" fill="#7d9baf" stroke="#7d9baf" stroke-width="1.51"/><path d="M335,852L335,977L460,852Z" fill="#83a3b1" stroke="#83a3b1" stroke-width="1.51"/><path d="M460,727L335,727L460,852Z" fill="#7fb3b9" stroke="#7fb3b9" stroke-width="1.51"/><path d="M335,727L335,852L460,852Z" fill="#84afb6" stroke="#84afb6" stroke-width="1.51"/><path d="M335,1227L460,1227L460,1102Z" fill="#758199" stroke="#758199" stroke-width="1.51"/><path d="M335,1102L335,1227L460,1102Z" fill="#7e869f" stroke="#7e869f" stroke-width="1.51"/><path d="M460,977L335,977L460,1102Z" fill="#7d92ab" stroke="#7d92ab" stroke-width="1.51"/><path d="M335,977L335,1102L460,1102Z" fill="#838ea9" stroke="#838ea9" stroke-width="1.51"/><path d="M460,227L335,227L460,352Z" fill="#aedeb7" stroke="#aedeb7" stroke-width="1.51"/><path d="M335,227L335,352L460,352Z" fill="#acddb7" stroke="#acddb7" stroke-width="1.51"/><path d="M335,477L460,477L460,352Z" fill="#95d3ba" stroke="#95d3ba" stroke-width="1.51"/><path d="M335,352L335,477L460,352Z" fill="#9fd8b9" stroke="#9fd8b9" stroke-width="1.51"/><path d="M335,-148L210,-148L335,-23Z" fill="#e3f4bb" stroke="#e3f4bb" stroke-width="1.51"/><path d="M210,-148L210,-23L335,-23Z" fill="#e4f5b6" stroke="#e4f5b6" stroke-width="1.51"/><path d="M335,-23L210,-23L335,102Z" fill="#dbf1b3" stroke="#dbf1b3" stroke-width="1.51"/><path d="M210,-23L210,102L335,102Z" fill="#d9f0b3" stroke="#d9f0b3" stroke-width="1.51"/><path d="M335,102L210,102L335,227Z" fill="#ceecb4" stroke="#ceecb4" stroke-width="1.51"/><path d="M210,102L210,227L335,227Z" fill="#cbeab4" stroke="#cbeab4" stroke-width="1.51"/><path d="M335,227L210,227L335,352Z" fill="#bae3b6" stroke="#bae3b6" stroke-width="1.51"/><path d="M210,227L210,352L335,352Z" fill="#b5e1b7" stroke="#b5e1b7" stroke-width="1.51"/><path d="M335,352L210,352L335,477Z" fill="#a6dab8" stroke="#a6dab8" stroke-width="1.51"/><path d="M210,352L210,477L335,477Z" fill="#a4d9b9" stroke="#a4d9b9" stroke-width="1.51"/><path d="M335,477L210,477L335,602Z" fill="#98d3bc" stroke="#98d3bc" stroke-width="1.51"/><path d="M210,477L210,602L335,602Z" fill="#97d0bc" stroke="#97d0bc" stroke-width="1.51"/><path d="M335,602L210,602L335,727Z" fill="#91c6bc" stroke="#91c6bc" stroke-width="1.51"/><path d="M210,602L210,727L335,727Z" fill="#91c3bb" stroke="#91c3bb" stroke-width="1.51"/><path d="M335,727L210,727L335,852Z" fill="#8cb8b9" stroke="#8cb8b9" stroke-width="1.51"/><path d="M210,727L210,852L335,852Z" fill="#8eb2b6" stroke="#8eb2b6" stroke-width="1.51"/><path d="M335,852L210,852L335,977Z" fill="#8aa5b1" stroke="#8aa5b1" stroke-width="1.51"/><path d="M210,852L210,977L335,977Z" fill="#8ca0af" stroke="#8ca0af" stroke-width="1.51"/><path d="M335,977L210,977L335,1102Z" fill="#8995ab" stroke="#8995ab" stroke-width="1.51"/><path d="M210,977L210,1102L335,1102Z" fill="#8b91a9" stroke="#8b91a9" stroke-width="1.51"/><path d="M335,1102L210,1102L335,1227Z" fill="#84889f" stroke="#84889f" stroke-width="1.51"/><path d="M210,1102L210,1227L335,1227Z" fill="#828698" stroke="#828698" stroke-width="1.51"/><path d="M210,-148L85,-148L210,-23Z" fill="#ebf7ba" stroke="#ebf7ba" stroke-width="1.51"/><path d="M85,-148L85,-23L210,-23Z" fill="#ebf8b6" stroke="#ebf8b6" stroke-width="1.51"/><path d="M210,-23L85,-23L210,102Z" fill="#e3f4b2" stroke="#e3f4b2" stroke-width="1.51"/><path d="M85,-23L85,102L210,102Z" fill="#e1f3b2" stroke="#e1f3b2" stroke-width="1.51"/><path d="M210,102L85,102L210,227Z" fill="#d6efb3" stroke="#d6efb3" stroke-width="1.51"/><path d="M85,102L85,227L210,227Z" fill="#d3edb4" stroke="#d3edb4" stroke-width="1.51"/><path d="M85,1102L210,1102L210,977Z" fill="#9193a9" stroke="#9193a9" stroke-width="1.51"/><path d="M85,977L85,1102L210,977Z" fill="#9499ab" stroke="#9499ab" stroke-width="1.51"/><path d="M210,477L85,477L210,602Z" fill="#a1d6bb" stroke="#a1d6bb" stroke-width="1.51"/><path d="M85,477L85,602L210,602Z" fill="#a1d3bc" stroke="#a1d3bc" stroke-width="1.51"/><path d="M210,602L85,602L210,727Z" fill="#9ac9bb" stroke="#9ac9bb" stroke-width="1.51"/><path d="M85,602L85,727L210,727Z" fill="#9bc6bb" stroke="#9bc6bb" stroke-width="1.51"/><path d="M85,977L210,977L210,852Z" fill="#92a2af" stroke="#92a2af" stroke-width="1.51"/><path d="M85,852L85,977L210,852Z" fill="#95a9b1" stroke="#95a9b1" stroke-width="1.51"/><path d="M210,727L85,727L210,852Z" fill="#95bab8" stroke="#95bab8" stroke-width="1.51"/><path d="M85,727L85,852L210,852Z" fill="#97b5b6" stroke="#97b5b6" stroke-width="1.51"/><path d="M210,1102L85,1102L210,1227Z" fill="#8c8b9f" stroke="#8c8b9f" stroke-width="1.51"/><path d="M85,1102L85,1227L210,1227Z" fill="#8a8898" stroke="#8a8898" stroke-width="1.51"/><path d="M210,227L85,227L210,352Z" fill="#c2e6b5" stroke="#c2e6b5" stroke-width="1.51"/><path d="M85,227L85,352L210,352Z" fill="#bee4b6" stroke="#bee4b6" stroke-width="1.51"/><path d="M85,477L210,477L210,352Z" fill="#aadbb9" stroke="#aadbb9" stroke-width="1.51"/><path d="M85,352L85,477L210,352Z" fill="#b2deb8" stroke="#b2deb8" stroke-width="1.51"/><path d="M85,-148L-40,-148L85,-23Z" fill="#f2fabc" stroke="#f2fabc" stroke-width="1.51"/><path d="M-40,-148L-40,-23L85,-23Z" fill="#f1faba" stroke="#f1faba" stroke-width="1.51"/><path d="M85,-23L-40,-23L85,102Z" fill="#eaf7b3" stroke="#eaf7b3" stroke-width="1.51"/><path d="M-40,-23L-40,102L85,102Z" fill="#e7f6b6" stroke="#e7f6b6" stroke-width="1.51"/><path d="M85,102L-40,102L85,227Z" fill="#ddf2b5" stroke="#ddf2b5" stroke-width="1.51"/><path d="M-40,102L-40,227L85,227Z" fill="#d9f0b8" stroke="#d9f0b8" stroke-width="1.51"/><path d="M85,227L-40,227L85,352Z" fill="#c9e9b7" stroke="#c9e9b7" stroke-width="1.51"/><path d="M-40,227L-40,352L85,352Z" fill="#c3e6ba" stroke="#c3e6ba" stroke-width="1.51"/><path d="M85,352L-40,352L85,477Z" fill="#b6e0ba" stroke="#b6e0ba" stroke-width="1.51"/><path d="M-40,352L-40,477L85,477Z" fill="#b3debd" stroke="#b3debd" stroke-width="1.51"/><path d="M85,477L-40,477L85,602Z" fill="#a9d9bd" stroke="#a9d9bd" stroke-width="1.51"/><path d="M-40,477L-40,602L85,602Z" fill="#a6d5c0" stroke="#a6d5c0" stroke-width="1.51"/><path d="M85,602L-40,602L85,727Z" fill="#a2ccbd" stroke="#a2ccbd" stroke-width="1.51"/><path d="M-40,602L-40,727L85,727Z" fill="#a0c8bf" stroke="#a0c8bf" stroke-width="1.51"/><path d="M85,727L-40,727L85,852Z" fill="#9dbdba" stroke="#9dbdba" stroke-width="1.51"/><path d="M-40,727L-40,852L85,852Z" fill="#9cb7ba" stroke="#9cb7ba" stroke-width="1.51"/><path d="M85,852L-40,852L85,977Z" fill="#9aabb3" stroke="#9aabb3" stroke-width="1.51"/><path d="M-40,852L-40,977L85,977Z" fill="#9aa5b3" stroke="#9aa5b3" stroke-width="1.51"/><path d="M85,977L-40,977L85,1102Z" fill="#989bac" stroke="#989bac" stroke-width="1.51"/><path d="M-40,977L-40,1102L85,1102Z" fill="#9996ad" stroke="#9996ad" stroke-width="1.51"/><path d="M85,1102L-40,1102L85,1227Z" fill="#938da1" stroke="#938da1" stroke-width="1.51"/><path d="M-40,1102L-40,1227L85,1227Z" fill="#8f8b9c" stroke="#8f8b9c" stroke-width="1.51"/><path d="M-40,-148L-165,-148L-40,-23Z" fill="#f6fbc4" stroke="#f6fbc4" stroke-width="1.51"/><path d="M-165,-148L-165,-23L-40,-23Z" fill="#f5fcc3" stroke="#f5fcc3" stroke-width="1.51"/><path d="M-40,-23L-165,-23L-40,102Z" fill="#eef9bb" stroke="#eef9bb" stroke-width="1.51"/><path d="M-165,-23L-165,102L-40,102Z" fill="#ebf7be" stroke="#ebf7be" stroke-width="1.51"/><path d="M-40,102L-165,102L-40,227Z" fill="#e1f4bc" stroke="#e1f4bc" stroke-width="1.51"/><path d="M-165,102L-165,227L-40,227Z" fill="#ddf2c0" stroke="#ddf2c0" stroke-width="1.51"/><path d="M-40,227L-165,227L-40,352Z" fill="#cdebbf" stroke="#cdebbf" stroke-width="1.51"/><path d="M-165,227L-165,352L-40,352Z" fill="#c7e8c3" stroke="#c7e8c3" stroke-width="1.51"/><path d="M-40,602L-165,602L-40,727Z" fill="#a4cdc5" stroke="#a4cdc5" stroke-width="1.51"/><path d="M-165,602L-165,727L-40,727Z" fill="#a3cac7" stroke="#a3cac7" stroke-width="1.51"/><path d="M-40,727L-165,727L-40,852Z" fill="#9fbfc2" stroke="#9fbfc2" stroke-width="1.51"/><path d="M-165,727L-165,852L-40,852Z" fill="#9fb9c2" stroke="#9fb9c2" stroke-width="1.51"/><path d="M-165,1102L-40,1102L-40,977Z" fill="#9b97b2" stroke="#9b97b2" stroke-width="1.51"/><path d="M-165,977L-165,1102L-40,977Z" fill="#9c9cb6" stroke="#9c9cb6" stroke-width="1.51"/><path d="M-40,852L-165,852L-40,977Z" fill="#9cacba" stroke="#9cacba" stroke-width="1.51"/><path d="M-165,852L-165,977L-40,977Z" fill="#9ca6bb" stroke="#9ca6bb" stroke-width="1.51"/><path d="M-40,1102L-165,1102L-40,1227Z" fill="#968fa8" stroke="#968fa8" stroke-width="1.51"/><path d="M-165,1102L-165,1227L-40,1227Z" fill="#928ca4" stroke="#928ca4" stroke-width="1.51"/><path d="M-40,352L-165,352L-40,477Z" fill="#b9e2c1" stroke="#b9e2c1" stroke-width="1.51"/><path d="M-165,352L-165,477L-40,477Z" fill="#b6e0c5" stroke="#b6e0c5" stroke-width="1.51"/><path d="M-165,602L-40,602L-40,477Z" fill="#a8d7c5" stroke="#a8d7c5" stroke-width="1.51"/><path d="M-165,477L-165,602L-40,477Z" fill="#addbc8" stroke="#addbc8" stroke-width="1.51"/></svg>