<svg xmlns="http://www.w3.org/2000/svg"><path d="M246,1461L-542,1396L934,1594Z" fill="#788195" stroke="#788195" stroke-width="1.51"/><path d="M1367,-501L1764,-503L1885,-515Z" fill="#9faec2" stroke="#9faec2" stroke-width="1.51"/><path d="M1438,1461L934,1594L2311,1441Z" fill="#1f4c90" stroke="#1f4c90" stroke-width="1.51"/><path d="M1689,1389L1438,1461L2311,1441Z" fill="#214091" stroke="#214091" stroke-width="1.51"/><path d="M2037,661L2292,940L2392,531Z" fill="#2d64a0" stroke="#2d64a0" stroke-width="1.51"/><path d="M2387,90L2175,246L2392,531Z" fill="#527598" stroke="#527598" stroke-width="1.51"/><path d="M2292,940L2356,1253L2392,531Z" fill="#205091" stroke="#205091" stroke-width="1.51"/><path d="M1992,-47L2387,90L2472,-32Z" fill="#7a8398" stroke="#7a8398" stroke-width="1.51"/><path d="M2264,-397L1992,-47L2472,-32Z" fill="#89889b" stroke="#89889b" stroke-width="1.51"/><path d="M2387,90L2392,531L2472,-32Z" fill="#5b758e" stroke="#5b758e" stroke-width="1.51"/><path d="M2392,531L2356,1253L2472,-32Z" fill="#2e6693" stroke="#2e6693" stroke-width="1.51"/><path d="M2037,661L2031,860L2292,940Z" fill="#2b60a8" stroke="#2b60a8" stroke-width="1.51"/><path d="M2099,1304L1689,1389L2311,1441Z" fill="#243691" stroke="#243691" stroke-width="1.51"/><path d="M2292,940L2100,1004L2356,1253Z" fill="#204592" stroke="#204592" stroke-width="1.51"/><path d="M1992,-47L2175,246L2387,90Z" fill="#7383a1" stroke="#7383a1" stroke-width="1.51"/><path d="M2175,246L2037,661L2392,531Z" fill="#4272a3" stroke="#4272a3" stroke-width="1.51"/><path d="M2100,1004L2099,1304L2356,1253Z" fill="#233d93" stroke="#233d93" stroke-width="1.51"/><path d="M2099,1304L2311,1441L2356,1253Z" fill="#1f3088" stroke="#1f3088" stroke-width="1.51"/><path d="M2031,860L2100,1004L2292,940Z" fill="#2855a1" stroke="#2855a1" stroke-width="1.51"/><path d="M1885,-515L1992,-47L2264,-397Z" fill="#9994ac" stroke="#9994ac" stroke-width="1.51"/><path d="M97,-423L991,-365L1367,-501Z" fill="#b3ddc6" stroke="#b3ddc6" stroke-width="1.51"/><path d="M1992,-47L1682,205L2175,246Z" fill="#728dac" stroke="#728dac" stroke-width="1.51"/><path d="M1682,205L1792,475L2175,246Z" fill="#5989af" stroke="#5989af" stroke-width="1.51"/><path d="M1792,475L2037,661L2175,246Z" fill="#487cae" stroke="#487cae" stroke-width="1.51"/><path d="M1885,-515L1764,-503L1992,-47Z" fill="#9b9eb2" stroke="#9b9eb2" stroke-width="1.51"/><path d="M1640,1001L1689,1389L2099,1304Z" fill="#254da0" stroke="#254da0" stroke-width="1.51"/><path d="M1640,1001L2099,1304L2100,1004Z" fill="#2550a1" stroke="#2550a1" stroke-width="1.51"/><path d="M2031,860L1640,1001L2100,1004Z" fill="#275ea8" stroke="#275ea8" stroke-width="1.51"/><path d="M1680,-1L1682,205L1992,-47Z" fill="#7e9aaf" stroke="#7e9aaf" stroke-width="1.51"/><path d="M1764,-503L1680,-1L1992,-47Z" fill="#92a0ad" stroke="#92a0ad" stroke-width="1.51"/><path d="M1693,766L1640,1001L2031,860Z" fill="#256db0" stroke="#256db0" stroke-width="1.51"/><path d="M1693,766L2031,860L2037,661Z" fill="#2d6fb0" stroke="#2d6fb0" stroke-width="1.51"/><path d="M1792,475L1693,766L2037,661Z" fill="#347cb3" stroke="#347cb3" stroke-width="1.51"/><path d="M1640,1001L1554,1290L1689,1389Z" fill="#2658a6" stroke="#2658a6" stroke-width="1.51"/><path d="M1367,-501L1680,-1L1764,-503Z" fill="#9cb1b8" stroke="#9cb1b8" stroke-width="1.51"/><path d="M1682,205L1335,403L1792,475Z" fill="#5198b8" stroke="#5198b8" stroke-width="1.51"/><path d="M1335,403L1561,693L1792,475Z" fill="#3994bb" stroke="#3994bb" stroke-width="1.51"/><path d="M1561,693L1693,766L1792,475Z" fill="#3084b7" stroke="#3084b7" stroke-width="1.51"/><path d="M1367,-501L1327,29L1680,-1Z" fill="#94b7b7" stroke="#94b7b7" stroke-width="1.51"/><path d="M1327,29L1525,114L1680,-1Z" fill="#80aeb6" stroke="#80aeb6" stroke-width="1.51"/><path d="M1525,114L1335,403L1682,205Z" fill="#61a4b8" stroke="#61a4b8" stroke-width="1.51"/><path d="M1680,-1L1525,114L1682,205Z" fill="#76a2b4" stroke="#76a2b4" stroke-width="1.51"/><path d="M1561,693L1640,1001L1693,766Z" fill="#227cb7" stroke="#227cb7" stroke-width="1.51"/><path d="M1554,1290L1438,1461L1689,1389Z" fill="#27519e" stroke="#27519e" stroke-width="1.51"/><path d="M1561,693L1204,1026L1640,1001Z" fill="#227fb8" stroke="#227fb8" stroke-width="1.51"/><path d="M1204,1026L1554,1290L1640,1001Z" fill="#246caf" stroke="#246caf" stroke-width="1.51"/><path d="M1204,1026L1207,1315L1554,1290Z" fill="#2a6eaf" stroke="#2a6eaf" stroke-width="1.51"/><path d="M1174,991L1204,1026L1561,693Z" fill="#2289bc" stroke="#2289bc" stroke-width="1.51"/><path d="M1335,403L994,572L1561,693Z" fill="#33a4c3" stroke="#33a4c3" stroke-width="1.51"/><path d="M994,572L1174,991L1561,693Z" fill="#2999c1" stroke="#2999c1" stroke-width="1.51"/><path d="M1327,29L1335,403L1525,114Z" fill="#6bafbc" stroke="#6bafbc" stroke-width="1.51"/><path d="M1207,1315L1438,1461L1554,1290Z" fill="#2a5ea7" stroke="#2a5ea7" stroke-width="1.51"/><path d="M991,-365L1327,29L1367,-501Z" fill="#a0c9bc" stroke="#a0c9bc" stroke-width="1.51"/><path d="M97,-423L884,-322L991,-365Z" fill="#b9e1bf" stroke="#b9e1bf" stroke-width="1.51"/><path d="M1327,29L1029,126L1335,403Z" fill="#6eb8be" stroke="#6eb8be" stroke-width="1.51"/><path d="M1207,1315L934,1594L1438,1461Z" fill="#2d639d" stroke="#2d639d" stroke-width="1.51"/><path d="M991,-365L1029,69L1327,29Z" fill="#94cabc" stroke="#94cabc" stroke-width="1.51"/><path d="M1029,69L1029,126L1327,29Z" fill="#82c3bd" stroke="#82c3bd" stroke-width="1.51"/><path d="M1029,126L870,327L1335,403Z" fill="#60bbbf" stroke="#60bbbf" stroke-width="1.51"/><path d="M870,327L994,572L1335,403Z" fill="#4eb5c2" stroke="#4eb5c2" stroke-width="1.51"/><path d="M97,-423L439,-247L884,-322Z" fill="#c5e7bb" stroke="#c5e7bb" stroke-width="1.51"/><path d="M991,-365L884,-322L1029,69Z" fill="#a1d5bc" stroke="#a1d5bc" stroke-width="1.51"/><path d="M884,-322L788,-169L1029,69Z" fill="#9fd5bb" stroke="#9fd5bb" stroke-width="1.51"/><path d="M994,572L867,859L1174,991Z" fill="#31a1c2" stroke="#31a1c2" stroke-width="1.51"/><path d="M1174,991L755,1173L1204,1026Z" fill="#3486b6" stroke="#3486b6" stroke-width="1.51"/><path d="M1204,1026L755,1173L1207,1315Z" fill="#367db2" stroke="#367db2" stroke-width="1.51"/><path d="M755,1173L934,1594L1207,1315Z" fill="#3d72aa" stroke="#3d72aa" stroke-width="1.51"/><path d="M867,859L755,1173L1174,991Z" fill="#3a90b9" stroke="#3a90b9" stroke-width="1.51"/><path d="M788,-169L870,327L1029,69Z" fill="#8acebd" stroke="#8acebd" stroke-width="1.51"/><path d="M1029,69L870,327L1029,126Z" fill="#76c5bf" stroke="#76c5bf" stroke-width="1.51"/><path d="M-111,1367L-542,1396L246,1461Z" fill="#8f8b9e" stroke="#8f8b9e" stroke-width="1.51"/><path d="M755,1173L587,1250L934,1594Z" fill="#5079aa" stroke="#5079aa" stroke-width="1.51"/><path d="M870,327L675,428L994,572Z" fill="#5abdc1" stroke="#5abdc1" stroke-width="1.51"/><path d="M675,428L867,859L994,572Z" fill="#4ab4c2" stroke="#4ab4c2" stroke-width="1.51"/><path d="M788,-169L465,204L870,327Z" fill="#8ed1bb" stroke="#8ed1bb" stroke-width="1.51"/><path d="M411,1376L246,1461L934,1594Z" fill="#5a7898" stroke="#5a7898" stroke-width="1.51"/><path d="M675,428L473,693L867,859Z" fill="#59b6c0" stroke="#59b6c0" stroke-width="1.51"/><path d="M587,1250L411,1376L934,1594Z" fill="#5478a2" stroke="#5478a2" stroke-width="1.51"/><path d="M489,-135L465,204L788,-169Z" fill="#a8dcb8" stroke="#a8dcb8" stroke-width="1.51"/><path d="M465,204L675,428L870,327Z" fill="#75c8bd" stroke="#75c8bd" stroke-width="1.51"/><path d="M439,-247L788,-169L884,-322Z" fill="#b2deb8" stroke="#b2deb8" stroke-width="1.51"/><path d="M473,693L755,1173L867,859Z" fill="#51a1bb" stroke="#51a1bb" stroke-width="1.51"/><path d="M473,693L258,1103L587,1250Z" fill="#6b9eb4" stroke="#6b9eb4" stroke-width="1.51"/><path d="M473,693L587,1250L755,1173Z" fill="#5996b4" stroke="#5996b4" stroke-width="1.51"/><path d="M439,-247L489,-135L788,-169Z" fill="#b4e0b7" stroke="#b4e0b7" stroke-width="1.51"/><path d="M465,204L510,407L675,428Z" fill="#7bcbbd" stroke="#7bcbbd" stroke-width="1.51"/><path d="M510,407L473,693L675,428Z" fill="#6bc4bf" stroke="#6bc4bf" stroke-width="1.51"/><path d="M234,73L465,204L489,-135Z" fill="#b1dfb7" stroke="#b1dfb7" stroke-width="1.51"/><path d="M258,1103L411,1376L587,1250Z" fill="#6e8bab" stroke="#6e8bab" stroke-width="1.51"/><path d="M57,981L258,1103L473,693Z" fill="#7fadb6" stroke="#7fadb6" stroke-width="1.51"/><path d="M98,659L57,981L473,693Z" fill="#86bdbb" stroke="#86bdbb" stroke-width="1.51"/><path d="M465,204L330,246L510,407Z" fill="#8dd2ba" stroke="#8dd2ba" stroke-width="1.51"/><path d="M98,659L473,693L510,407Z" fill="#7dc6bd" stroke="#7dc6bd" stroke-width="1.51"/><path d="M330,246L98,659L510,407Z" fill="#8dcfbc" stroke="#8dcfbc" stroke-width="1.51"/><path d="M234,73L330,246L465,204Z" fill="#a5dab8" stroke="#a5dab8" stroke-width="1.51"/><path d="M439,-247L234,73L489,-135Z" fill="#bfe5b6" stroke="#bfe5b6" stroke-width="1.51"/><path d="M11,-353L234,73L439,-247Z" fill="#d2edb4" stroke="#d2edb4" stroke-width="1.51"/><path d="M97,-423L11,-353L439,-247Z" fill="#def2b8" stroke="#def2b8" stroke-width="1.51"/><path d="M258,1103L246,1461L411,1376Z" fill="#7988a8" stroke="#7988a8" stroke-width="1.51"/><path d="M11,-353L-27,40L234,73Z" fill="#d4eeb3" stroke="#d4eeb3" stroke-width="1.51"/><path d="M-111,1367L246,1461L258,1103Z" fill="#878ea8" stroke="#878ea8" stroke-width="1.51"/><path d="M234,73L-125,147L330,246Z" fill="#b7e2b6" stroke="#b7e2b6" stroke-width="1.51"/><path d="M-125,147L-38,570L330,246Z" fill="#a9dcb8" stroke="#a9dcb8" stroke-width="1.51"/><path d="M-38,570L98,659L330,246Z" fill="#98d3bc" stroke="#98d3bc" stroke-width="1.51"/><path d="M-27,40L-125,147L234,73Z" fill="#c6e8b5" stroke="#c6e8b5" stroke-width="1.51"/><path d="M57,981L-120,1072L258,1103Z" fill="#8ba5b1" stroke="#8ba5b1" stroke-width="1.51"/><path d="M-120,1072L-111,1367L258,1103Z" fill="#8e9aac" stroke="#8e9aac" stroke-width="1.51"/><path d="M-445,-300L11,-353L97,-423Z" fill="#edf8b9" stroke="#edf8b9" stroke-width="1.51"/><path d="M-89,831L57,981L98,659Z" fill="#91bdba" stroke="#91bdba" stroke-width="1.51"/><path d="M-38,570L-89,831L98,659Z" fill="#97c8bb" stroke="#97c8bb" stroke-width="1.51"/><path d="M-445,-300L-27,40L11,-353Z" fill="#e8f6b2" stroke="#e8f6b2" stroke-width="1.51"/><path d="M-89,831L-120,1072L57,981Z" fill="#93b0b4" stroke="#93b0b4" stroke-width="1.51"/><path d="M-125,147L-278,138L-38,570Z" fill="#b7e1b6" stroke="#b7e1b6" stroke-width="1.51"/><path d="M-445,-300L-278,138L-27,40Z" fill="#dff3b6" stroke="#dff3b6" stroke-width="1.51"/><path d="M-278,138L-550,631L-38,570Z" fill="#afdcbf" stroke="#afdcbf" stroke-width="1.51"/><path d="M-347,817L-89,831L-38,570Z" fill="#9dc7bb" stroke="#9dc7bb" stroke-width="1.51"/><path d="M-278,138L-125,147L-27,40Z" fill="#cceab4" stroke="#cceab4" stroke-width="1.51"/><path d="M-550,631L-347,817L-38,570Z" fill="#a4cec1" stroke="#a4cec1" stroke-width="1.51"/><path d="M-445,-300L-551,-116L-278,138Z" fill="#e7f6be" stroke="#e7f6be" stroke-width="1.51"/><path d="M-120,1072L-427,1069L-111,1367Z" fill="#999fae" stroke="#999fae" stroke-width="1.51"/><path d="M-347,817L-120,1072L-89,831Z" fill="#9bb8b6" stroke="#9bb8b6" stroke-width="1.51"/><path d="M-347,817L-427,1069L-120,1072Z" fill="#9cb1b9" stroke="#9cb1b9" stroke-width="1.51"/><path d="M-427,1069L-542,1396L-111,1367Z" fill="#9a97b1" stroke="#9a97b1" stroke-width="1.51"/><path d="M-551,-116L-550,631L-278,138Z" fill="#c7e8c4" stroke="#c7e8c4" stroke-width="1.51"/><path d="M-550,631L-427,1069L-347,817Z" fill="#a1c2c6" stroke="#a1c2c6" stroke-width="1.51"/><path d="M-550,631L-542,1396L-427,1069Z" fill="#9eaec1" stroke="#9eaec1" stroke-width="1.51"/></svg>
